<?xml version="1.0" encoding="UTF-8" standalone="no"?>
<!DOCTYPE svg PUBLIC "-//W3C//DTD SVG 1.1//EN"
 "http://www.w3.org/Graphics/SVG/1.1/DTD/svg11.dtd">
<!-- Generated by graphviz version 8.0.5 (20230430.1635)
 -->
<!-- Title: Graphical Class Hierarchy Pages: 1 -->
<svg width="296pt" height="137pt"
 viewBox="0.00 0.00 295.75 136.50" xmlns="http://www.w3.org/2000/svg" xmlns:xlink="http://www.w3.org/1999/xlink">
<g id="graph0" class="graph" transform="scale(1 1) rotate(0) translate(4 132.5)">
<title>Graphical Class Hierarchy</title>
<!-- Node0 -->
<g id="node1" class="node">
<title>Node0</title>
<g id="a_node1"><a xlink:href="d5/d06/structProfile_1_1RepetitionTest.html" target="_top" xlink:title="A functor to wrap around code that will be profiled multiple times via the Profile::RepetitionProfile...">
<polygon fill="white" stroke="#666666" points="110.5,-73.88 0,-73.88 0,-54.62 110.5,-54.62 110.5,-73.88"/>
<text text-anchor="middle" x="55.25" y="-60.38" font-family="Helvetica,sans-Serif" font-size="10.00">Profile::RepetitionTest</text>
</a>
</g>
</g>
<!-- Node1 -->
<g id="node2" class="node">
<title>Node1</title>
<g id="a_node2"><a xlink:href="d3/d01/structRepetitionTest__TestFunction__Bandwidth.html" target="_top" xlink:title="A wrapper around the TestFunction_Bandwidth when it will be used in repetition tester.">
<polygon fill="white" stroke="#666666" points="287.75,-128.5 146.5,-128.5 146.5,-98 287.75,-98 287.75,-128.5"/>
<text text-anchor="start" x="154.5" y="-115" font-family="Helvetica,sans-Serif" font-size="10.00">RepetitionTest_TestFunction</text>
<text text-anchor="middle" x="217.12" y="-103.75" font-family="Helvetica,sans-Serif" font-size="10.00">_Bandwidth</text>
</a>
</g>
</g>
<!-- Node0&#45;&gt;Node1 -->
<g id="edge1" class="edge">
<title>Node0&#45;&gt;Node1</title>
<path fill="none" stroke="#63b8ff" d="M99.44,-77.49C119.61,-83.67 143.77,-91.07 164.86,-97.54"/>
<polygon fill="#63b8ff" stroke="#63b8ff" points="100.58,-73.87 89.99,-74.28 98.52,-80.56 100.58,-73.87"/>
</g>
<!-- Node2 -->
<g id="node3" class="node">
<title>Node2</title>
<g id="a_node3"><a xlink:href="d5/d05/structRepetitionTest__TestFunction__ProfileBlock.html" target="_top" xlink:title="A wrapper around the TestFunction_ProfileBlock when it will be used in repetition tester.">
<polygon fill="white" stroke="#666666" points="287.75,-79.5 146.5,-79.5 146.5,-49 287.75,-49 287.75,-79.5"/>
<text text-anchor="start" x="154.5" y="-66" font-family="Helvetica,sans-Serif" font-size="10.00">RepetitionTest_TestFunction</text>
<text text-anchor="middle" x="217.12" y="-54.75" font-family="Helvetica,sans-Serif" font-size="10.00">_ProfileBlock</text>
</a>
</g>
</g>
<!-- Node0&#45;&gt;Node2 -->
<g id="edge2" class="edge">
<title>Node0&#45;&gt;Node2</title>
<path fill="none" stroke="#63b8ff" d="M121.7,-64.25C129.79,-64.25 138.09,-64.25 146.25,-64.25"/>
<polygon fill="#63b8ff" stroke="#63b8ff" points="121.82,-60.75 111.82,-64.25 121.82,-67.75 121.82,-60.75"/>
</g>
<!-- Node3 -->
<g id="node4" class="node">
<title>Node3</title>
<g id="a_node4"><a xlink:href="df/d04/structRepetitionTest__TestFunction__ProfileFunction.html" target="_top" xlink:title="A wrapper around the TestFunction_ProfileFunction when it will be used in repetition tester.">
<polygon fill="white" stroke="#666666" points="287.75,-30.5 146.5,-30.5 146.5,0 287.75,0 287.75,-30.5"/>
<text text-anchor="start" x="154.5" y="-17" font-family="Helvetica,sans-Serif" font-size="10.00">RepetitionTest_TestFunction</text>
<text text-anchor="middle" x="217.12" y="-5.75" font-family="Helvetica,sans-Serif" font-size="10.00">_ProfileFunction</text>
</a>
</g>
</g>
<!-- Node0&#45;&gt;Node3 -->
<g id="edge3" class="edge">
<title>Node0&#45;&gt;Node3</title>
<path fill="none" stroke="#63b8ff" d="M99.44,-51.01C119.61,-44.83 143.77,-37.43 164.86,-30.96"/>
<polygon fill="#63b8ff" stroke="#63b8ff" points="98.52,-47.94 89.99,-54.22 100.58,-54.63 98.52,-47.94"/>
</g>
</g>
</svg>
