<?xml version="1.0" encoding="UTF-8" standalone="no"?>
<!DOCTYPE svg PUBLIC "-//W3C//DTD SVG 1.1//EN"
 "http://www.w3.org/Graphics/SVG/1.1/DTD/svg11.dtd">
<!-- Generated by graphviz version 8.0.5 (20230430.1635)
 -->
<!-- Title: headers/Profile/Export.hpp Pages: 1 -->
<svg width="318pt" height="193pt"
 viewBox="0.00 0.00 318.12 193.00" xmlns="http://www.w3.org/2000/svg" xmlns:xlink="http://www.w3.org/1999/xlink">
<g id="graph0" class="graph" transform="scale(1 1) rotate(0) translate(4 189)">
<title>headers/Profile/Export.hpp</title>
<!-- Node1 -->
<g id="node1" class="node">
<title>Node1</title>
<g id="a_node1"><a xlink:title=" ">
<polygon fill="#999999" stroke="#666666" points="249.5,-185 121,-185 121,-165.75 249.5,-165.75 249.5,-185"/>
<text text-anchor="middle" x="185.25" y="-171.5" font-family="Helvetica,sans-Serif" font-size="10.00">headers/Profile/Export.hpp</text>
</a>
</g>
</g>
<!-- Node2 -->
<g id="node2" class="node">
<title>Node2</title>
<g id="a_node2"><a xlink:href="../../d7/d04/Timing_8hpp.html" target="_top" xlink:title=" ">
<polygon fill="white" stroke="#666666" points="250.62,-129.75 119.88,-129.75 119.88,-110.5 250.62,-110.5 250.62,-129.75"/>
<text text-anchor="middle" x="185.25" y="-116.25" font-family="Helvetica,sans-Serif" font-size="10.00">headers/Profile/Timing.hpp</text>
</a>
</g>
</g>
<!-- Node1&#45;&gt;Node2 -->
<g id="edge1" class="edge">
<title>Node1&#45;&gt;Node2</title>
<path fill="none" stroke="#63b8ff" d="M185.25,-154.71C185.25,-146.27 185.25,-136.83 185.25,-130.11"/>
<polygon fill="#63b8ff" stroke="#63b8ff" points="181.75,-154.58 185.25,-164.58 188.75,-154.58 181.75,-154.58"/>
</g>
<!-- Node3 -->
<g id="node3" class="node">
<title>Node3</title>
<g id="a_node3"><a xlink:href="../../dc/d04/Profiler_8hpp.html" target="_top" xlink:title=" ">
<polygon fill="white" stroke="#666666" points="182,-74.5 50.5,-74.5 50.5,-55.25 182,-55.25 182,-74.5"/>
<text text-anchor="middle" x="116.25" y="-61" font-family="Helvetica,sans-Serif" font-size="10.00">headers/Profile/Profiler.hpp</text>
</a>
</g>
</g>
<!-- Node2&#45;&gt;Node3 -->
<g id="edge2" class="edge">
<title>Node2&#45;&gt;Node3</title>
<path fill="none" stroke="#63b8ff" d="M164.96,-103.47C152.85,-94.12 137.9,-82.58 127.78,-74.77"/>
<polygon fill="#63b8ff" stroke="#63b8ff" points="162.49,-106.75 172.55,-110.09 166.77,-101.21 162.49,-106.75"/>
</g>
<!-- Node6 -->
<g id="node6" class="node">
<title>Node6</title>
<g id="a_node6"><a xlink:href="../../dc/d04/Timing_8cpp.html" target="_top" xlink:title=" ">
<polygon fill="white" stroke="#666666" points="310.12,-74.5 200.38,-74.5 200.38,-55.25 310.12,-55.25 310.12,-74.5"/>
<text text-anchor="middle" x="255.25" y="-61" font-family="Helvetica,sans-Serif" font-size="10.00">src/Profile/Timing.cpp</text>
</a>
</g>
</g>
<!-- Node2&#45;&gt;Node6 -->
<g id="edge5" class="edge">
<title>Node2&#45;&gt;Node6</title>
<path fill="none" stroke="#63b8ff" d="M205.83,-103.47C218.12,-94.12 233.29,-82.58 243.55,-74.77"/>
<polygon fill="#63b8ff" stroke="#63b8ff" points="203.96,-101.25 198.12,-110.09 208.2,-106.82 203.96,-101.25"/>
</g>
<!-- Node4 -->
<g id="node4" class="node">
<title>Node4</title>
<g id="a_node4"><a xlink:href="../../d3/d02/Profiler_8cpp.html" target="_top" xlink:title=" ">
<polygon fill="white" stroke="#666666" points="110.5,-19.25 0,-19.25 0,0 110.5,0 110.5,-19.25"/>
<text text-anchor="middle" x="55.25" y="-5.75" font-family="Helvetica,sans-Serif" font-size="10.00">src/Profile/Profiler.cpp</text>
</a>
</g>
</g>
<!-- Node3&#45;&gt;Node4 -->
<g id="edge3" class="edge">
<title>Node3&#45;&gt;Node4</title>
<path fill="none" stroke="#63b8ff" d="M97.68,-47.66C87.09,-38.42 74.21,-27.18 65.44,-19.52"/>
<polygon fill="#63b8ff" stroke="#63b8ff" points="95.07,-50.9 104.9,-54.84 99.67,-45.63 95.07,-50.9"/>
</g>
<!-- Node5 -->
<g id="node5" class="node">
<title>Node5</title>
<g id="a_node5"><a xlink:href="../../df/d02/main_8cpp.html" target="_top" xlink:title=" ">
<polygon fill="white" stroke="#666666" points="227.88,-19.25 128.62,-19.25 128.62,0 227.88,0 227.88,-19.25"/>
<text text-anchor="middle" x="178.25" y="-5.75" font-family="Helvetica,sans-Serif" font-size="10.00">src/Tests/main.cpp</text>
</a>
</g>
</g>
<!-- Node3&#45;&gt;Node5 -->
<g id="edge4" class="edge">
<title>Node3&#45;&gt;Node5</title>
<path fill="none" stroke="#63b8ff" d="M134.8,-47.94C145.63,-38.64 158.89,-27.26 167.89,-19.52"/>
<polygon fill="#63b8ff" stroke="#63b8ff" points="133.07,-45.67 127.77,-54.84 137.63,-50.98 133.07,-45.67"/>
</g>
</g>
</svg>
