<?xml version="1.0" encoding="UTF-8" standalone="no"?>
<!DOCTYPE svg PUBLIC "-//W3C//DTD SVG 1.1//EN"
 "http://www.w3.org/Graphics/SVG/1.1/DTD/svg11.dtd">
<!-- Generated by graphviz version 8.0.5 (20230430.1635)
 -->
<!-- Title: src/Tests/main.cpp Pages: 1 -->
<svg width="417pt" height="193pt"
 viewBox="0.00 0.00 416.62 193.00" xmlns="http://www.w3.org/2000/svg" xmlns:xlink="http://www.w3.org/1999/xlink">
<g id="graph0" class="graph" transform="scale(1 1) rotate(0) translate(4 189)">
<title>src/Tests/main.cpp</title>
<!-- Node1 -->
<g id="node1" class="node">
<title>Node1</title>
<g id="a_node1"><a xlink:title=" ">
<polygon fill="#999999" stroke="#666666" points="235.12,-185 135.88,-185 135.88,-165.75 235.12,-165.75 235.12,-185"/>
<text text-anchor="middle" x="185.5" y="-171.5" font-family="Helvetica,sans-Serif" font-size="10.00">src/Tests/main.cpp</text>
</a>
</g>
</g>
<!-- Node2 -->
<g id="node2" class="node">
<title>Node2</title>
<g id="a_node2"><a xlink:href="../../dc/d04/Profiler_8hpp.html" target="_top" xlink:title=" ">
<polygon fill="white" stroke="#666666" points="232.5,-129.75 138.5,-129.75 138.5,-110.5 232.5,-110.5 232.5,-129.75"/>
<text text-anchor="middle" x="185.5" y="-116.25" font-family="Helvetica,sans-Serif" font-size="10.00">Profile/Profiler.hpp</text>
</a>
</g>
</g>
<!-- Node1&#45;&gt;Node2 -->
<g id="edge1" class="edge">
<title>Node1&#45;&gt;Node2</title>
<path fill="none" stroke="#63b8ff" d="M185.5,-165.58C185.5,-158.92 185.5,-149.49 185.5,-141.03"/>
<polygon fill="#63b8ff" stroke="#63b8ff" points="189,-141.11 185.5,-131.11 182,-141.11 189,-141.11"/>
</g>
<!-- Node3 -->
<g id="node3" class="node">
<title>Node3</title>
<g id="a_node3"><a xlink:title=" ">
<polygon fill="#e0e0e0" stroke="#999999" points="37,-74.5 0,-74.5 0,-55.25 37,-55.25 37,-74.5"/>
<text text-anchor="middle" x="18.5" y="-61" font-family="Helvetica,sans-Serif" font-size="10.00">array</text>
</a>
</g>
</g>
<!-- Node2&#45;&gt;Node3 -->
<g id="edge2" class="edge">
<title>Node2&#45;&gt;Node3</title>
<path fill="none" stroke="#63b8ff" d="M157.17,-110.09C126.54,-100.32 77.97,-84.84 47.2,-75.03"/>
<polygon fill="#63b8ff" stroke="#63b8ff" points="48.7,-71.51 38.11,-71.81 46.57,-78.18 48.7,-71.51"/>
</g>
<!-- Node4 -->
<g id="node4" class="node">
<title>Node4</title>
<g id="a_node4"><a xlink:title=" ">
<polygon fill="#e0e0e0" stroke="#999999" points="97.62,-74.5 55.38,-74.5 55.38,-55.25 97.62,-55.25 97.62,-74.5"/>
<text text-anchor="middle" x="76.5" y="-61" font-family="Helvetica,sans-Serif" font-size="10.00">cstdio</text>
</a>
</g>
</g>
<!-- Node2&#45;&gt;Node4 -->
<g id="edge3" class="edge">
<title>Node2&#45;&gt;Node4</title>
<path fill="none" stroke="#63b8ff" d="M167.01,-110.09C149.94,-101.75 124.34,-89.25 104.72,-79.66"/>
<polygon fill="#63b8ff" stroke="#63b8ff" points="106.6,-76.2 96.08,-74.95 103.53,-82.49 106.6,-76.2"/>
</g>
<!-- Node5 -->
<g id="node5" class="node">
<title>Node5</title>
<g id="a_node5"><a xlink:title=" ">
<polygon fill="#e0e0e0" stroke="#999999" points="177,-74.5 116,-74.5 116,-55.25 177,-55.25 177,-74.5"/>
<text text-anchor="middle" x="146.5" y="-61" font-family="Helvetica,sans-Serif" font-size="10.00">type_traits</text>
</a>
</g>
</g>
<!-- Node2&#45;&gt;Node5 -->
<g id="edge4" class="edge">
<title>Node2&#45;&gt;Node5</title>
<path fill="none" stroke="#63b8ff" d="M179.06,-110.33C173.73,-103.05 165.99,-92.48 159.39,-83.48"/>
<polygon fill="#63b8ff" stroke="#63b8ff" points="161.81,-81.86 153.08,-75.86 156.17,-85.99 161.81,-81.86"/>
</g>
<!-- Node6 -->
<g id="node6" class="node">
<title>Node6</title>
<g id="a_node6"><a xlink:href="../../d8/d03/Export_8hpp.html" target="_top" xlink:title=" ">
<polygon fill="white" stroke="#666666" points="256,-74.5 195,-74.5 195,-55.25 256,-55.25 256,-74.5"/>
<text text-anchor="middle" x="225.5" y="-61" font-family="Helvetica,sans-Serif" font-size="10.00">Export.hpp</text>
</a>
</g>
</g>
<!-- Node2&#45;&gt;Node6 -->
<g id="edge5" class="edge">
<title>Node2&#45;&gt;Node6</title>
<path fill="none" stroke="#63b8ff" d="M192.11,-110.33C197.57,-103.05 205.51,-92.48 212.28,-83.48"/>
<polygon fill="#63b8ff" stroke="#63b8ff" points="215.54,-85.96 218.75,-75.86 209.95,-81.75 215.54,-85.96"/>
</g>
<!-- Node7 -->
<g id="node7" class="node">
<title>Node7</title>
<g id="a_node7"><a xlink:href="../../d7/d04/Timing_8hpp.html" target="_top" xlink:title=" ">
<polygon fill="white" stroke="#666666" points="337.12,-74.5 273.88,-74.5 273.88,-55.25 337.12,-55.25 337.12,-74.5"/>
<text text-anchor="middle" x="305.5" y="-61" font-family="Helvetica,sans-Serif" font-size="10.00">Timing.hpp</text>
</a>
</g>
</g>
<!-- Node2&#45;&gt;Node7 -->
<g id="edge6" class="edge">
<title>Node2&#45;&gt;Node7</title>
<path fill="none" stroke="#63b8ff" d="M205.86,-110.09C224.82,-101.68 253.35,-89.02 275.02,-79.4"/>
<polygon fill="#63b8ff" stroke="#63b8ff" points="276.32,-82.21 284.04,-74.95 273.48,-75.81 276.32,-82.21"/>
</g>
<!-- Node10 -->
<g id="node10" class="node">
<title>Node10</title>
<g id="a_node10"><a xlink:href="../../d5/d04/Types_8hpp.html" target="_top" xlink:title=" ">
<polygon fill="white" stroke="#666666" points="408.62,-19.25 348.38,-19.25 348.38,0 408.62,0 408.62,-19.25"/>
<text text-anchor="middle" x="378.5" y="-5.75" font-family="Helvetica,sans-Serif" font-size="10.00">Types.hpp</text>
</a>
</g>
</g>
<!-- Node2&#45;&gt;Node10 -->
<g id="edge10" class="edge">
<title>Node2&#45;&gt;Node10</title>
<path fill="none" stroke="#63b8ff" d="M232.83,-116.16C267.66,-111.76 314.36,-100.94 346.5,-74.5 360.41,-63.06 368.83,-44.05 373.52,-29.74"/>
<polygon fill="#63b8ff" stroke="#63b8ff" points="377.07,-31.08 376.51,-20.5 370.35,-29.12 377.07,-31.08"/>
</g>
<!-- Node8 -->
<g id="node8" class="node">
<title>Node8</title>
<g id="a_node8"><a xlink:title=" ">
<polygon fill="#e0e0e0" stroke="#999999" points="252.25,-19.25 192.75,-19.25 192.75,0 252.25,0 252.25,-19.25"/>
<text text-anchor="middle" x="222.5" y="-5.75" font-family="Helvetica,sans-Serif" font-size="10.00">x86intrin.h</text>
</a>
</g>
</g>
<!-- Node7&#45;&gt;Node8 -->
<g id="edge7" class="edge">
<title>Node7&#45;&gt;Node8</title>
<path fill="none" stroke="#63b8ff" d="M291.42,-54.84C278.9,-46.81 260.35,-34.91 245.65,-25.48"/>
<polygon fill="#63b8ff" stroke="#63b8ff" points="247.96,-22.16 237.65,-19.7 244.18,-28.05 247.96,-22.16"/>
</g>
<!-- Node9 -->
<g id="node9" class="node">
<title>Node9</title>
<g id="a_node9"><a xlink:title=" ">
<polygon fill="#e0e0e0" stroke="#999999" points="330.62,-19.25 270.38,-19.25 270.38,0 330.62,0 330.62,-19.25"/>
<text text-anchor="middle" x="300.5" y="-5.75" font-family="Helvetica,sans-Serif" font-size="10.00">sys/time.h</text>
</a>
</g>
</g>
<!-- Node7&#45;&gt;Node9 -->
<g id="edge8" class="edge">
<title>Node7&#45;&gt;Node9</title>
<path fill="none" stroke="#63b8ff" d="M304.67,-55.08C304.05,-48.42 303.16,-38.99 302.37,-30.53"/>
<polygon fill="#63b8ff" stroke="#63b8ff" points="305.76,-30.24 301.34,-20.61 298.79,-30.89 305.76,-30.24"/>
</g>
<!-- Node7&#45;&gt;Node10 -->
<g id="edge9" class="edge">
<title>Node7&#45;&gt;Node10</title>
<path fill="none" stroke="#63b8ff" d="M317.88,-54.84C328.75,-46.91 344.78,-35.22 357.63,-25.85"/>
<polygon fill="#63b8ff" stroke="#63b8ff" points="359.28,-28.25 365.3,-19.52 355.16,-22.59 359.28,-28.25"/>
</g>
</g>
</svg>
