<?xml version="1.0" encoding="UTF-8" standalone="no"?>
<!DOCTYPE svg PUBLIC "-//W3C//DTD SVG 1.1//EN"
 "http://www.w3.org/Graphics/SVG/1.1/DTD/svg11.dtd">
<!-- Generated by graphviz version 8.0.5 (20230430.1635)
 -->
<!-- Title: src/Tests/main.cpp Pages: 1 -->
<svg width="510pt" height="193pt"
 viewBox="0.00 0.00 509.62 193.00" xmlns="http://www.w3.org/2000/svg" xmlns:xlink="http://www.w3.org/1999/xlink">
<g id="graph0" class="graph" transform="scale(1 1) rotate(0) translate(4 189)">
<title>src/Tests/main.cpp</title>
<!-- Node1 -->
<g id="node1" class="node">
<title>Node1</title>
<g id="a_node1"><a xlink:title=" ">
<polygon fill="#999999" stroke="#666666" points="221.12,-185 121.88,-185 121.88,-165.75 221.12,-165.75 221.12,-185"/>
<text text-anchor="middle" x="171.5" y="-171.5" font-family="Helvetica,sans-Serif" font-size="10.00">src/Tests/main.cpp</text>
</a>
</g>
</g>
<!-- Node2 -->
<g id="node2" class="node">
<title>Node2</title>
<g id="a_node2"><a xlink:href="../../dc/d04/Profiler_8hpp.html" target="_top" xlink:title=" ">
<polygon fill="white" stroke="#666666" points="218.5,-129.75 124.5,-129.75 124.5,-110.5 218.5,-110.5 218.5,-129.75"/>
<text text-anchor="middle" x="171.5" y="-116.25" font-family="Helvetica,sans-Serif" font-size="10.00">Profile/Profiler.hpp</text>
</a>
</g>
</g>
<!-- Node1&#45;&gt;Node2 -->
<g id="edge1" class="edge">
<title>Node1&#45;&gt;Node2</title>
<path fill="none" stroke="#63b8ff" d="M171.5,-165.58C171.5,-158.92 171.5,-149.49 171.5,-141.03"/>
<polygon fill="#63b8ff" stroke="#63b8ff" points="175,-141.11 171.5,-131.11 168,-141.11 175,-141.11"/>
</g>
<!-- Node3 -->
<g id="node3" class="node">
<title>Node3</title>
<g id="a_node3"><a xlink:title=" ">
<polygon fill="#e0e0e0" stroke="#999999" points="37,-74.5 0,-74.5 0,-55.25 37,-55.25 37,-74.5"/>
<text text-anchor="middle" x="18.5" y="-61" font-family="Helvetica,sans-Serif" font-size="10.00">array</text>
</a>
</g>
</g>
<!-- Node2&#45;&gt;Node3 -->
<g id="edge2" class="edge">
<title>Node2&#45;&gt;Node3</title>
<path fill="none" stroke="#63b8ff" d="M145.55,-110.09C118.33,-100.62 75.67,-85.77 47.4,-75.93"/>
<polygon fill="#63b8ff" stroke="#63b8ff" points="48.92,-72.41 38.33,-72.43 46.62,-79.02 48.92,-72.41"/>
</g>
<!-- Node4 -->
<g id="node4" class="node">
<title>Node4</title>
<g id="a_node4"><a xlink:title=" ">
<polygon fill="#e0e0e0" stroke="#999999" points="97.62,-74.5 55.38,-74.5 55.38,-55.25 97.62,-55.25 97.62,-74.5"/>
<text text-anchor="middle" x="76.5" y="-61" font-family="Helvetica,sans-Serif" font-size="10.00">cstdio</text>
</a>
</g>
</g>
<!-- Node2&#45;&gt;Node4 -->
<g id="edge3" class="edge">
<title>Node2&#45;&gt;Node4</title>
<path fill="none" stroke="#63b8ff" d="M155.38,-110.09C140.78,-101.91 119.01,-89.71 102.04,-80.19"/>
<polygon fill="#63b8ff" stroke="#63b8ff" points="104.13,-76.79 93.69,-74.95 100.71,-82.9 104.13,-76.79"/>
</g>
<!-- Node5 -->
<g id="node5" class="node">
<title>Node5</title>
<g id="a_node5"><a xlink:title=" ">
<polygon fill="#e0e0e0" stroke="#999999" points="163.62,-74.5 115.38,-74.5 115.38,-55.25 163.62,-55.25 163.62,-74.5"/>
<text text-anchor="middle" x="139.5" y="-61" font-family="Helvetica,sans-Serif" font-size="10.00">cstdarg</text>
</a>
</g>
</g>
<!-- Node2&#45;&gt;Node5 -->
<g id="edge4" class="edge">
<title>Node2&#45;&gt;Node5</title>
<path fill="none" stroke="#63b8ff" d="M166.22,-110.33C161.93,-103.21 155.76,-92.93 150.42,-84.05"/>
<polygon fill="#63b8ff" stroke="#63b8ff" points="153.05,-82.63 144.9,-75.86 147.05,-86.23 153.05,-82.63"/>
</g>
<!-- Node6 -->
<g id="node6" class="node">
<title>Node6</title>
<g id="a_node6"><a xlink:title=" ">
<polygon fill="#e0e0e0" stroke="#999999" points="225,-74.5 182,-74.5 182,-55.25 225,-55.25 225,-74.5"/>
<text text-anchor="middle" x="203.5" y="-61" font-family="Helvetica,sans-Serif" font-size="10.00">vector</text>
</a>
</g>
</g>
<!-- Node2&#45;&gt;Node6 -->
<g id="edge5" class="edge">
<title>Node2&#45;&gt;Node6</title>
<path fill="none" stroke="#63b8ff" d="M176.78,-110.33C181.07,-103.21 187.24,-92.93 192.58,-84.05"/>
<polygon fill="#63b8ff" stroke="#63b8ff" points="195.95,-86.23 198.1,-75.86 189.95,-82.63 195.95,-86.23"/>
</g>
<!-- Node7 -->
<g id="node7" class="node">
<title>Node7</title>
<g id="a_node7"><a xlink:title=" ">
<polygon fill="#e0e0e0" stroke="#999999" points="304,-74.5 243,-74.5 243,-55.25 304,-55.25 304,-74.5"/>
<text text-anchor="middle" x="273.5" y="-61" font-family="Helvetica,sans-Serif" font-size="10.00">type_traits</text>
</a>
</g>
</g>
<!-- Node2&#45;&gt;Node7 -->
<g id="edge6" class="edge">
<title>Node2&#45;&gt;Node7</title>
<path fill="none" stroke="#63b8ff" d="M188.8,-110.09C204.63,-101.83 228.29,-89.48 246.58,-79.93"/>
<polygon fill="#63b8ff" stroke="#63b8ff" points="247.87,-82.68 255.11,-74.95 244.63,-76.48 247.87,-82.68"/>
</g>
<!-- Node8 -->
<g id="node8" class="node">
<title>Node8</title>
<g id="a_node8"><a xlink:href="../../d7/d04/Timing_8hpp.html" target="_top" xlink:title=" ">
<polygon fill="white" stroke="#666666" points="385.12,-74.5 321.88,-74.5 321.88,-55.25 385.12,-55.25 385.12,-74.5"/>
<text text-anchor="middle" x="353.5" y="-61" font-family="Helvetica,sans-Serif" font-size="10.00">Timing.hpp</text>
</a>
</g>
</g>
<!-- Node2&#45;&gt;Node8 -->
<g id="edge7" class="edge">
<title>Node2&#45;&gt;Node8</title>
<path fill="none" stroke="#63b8ff" d="M202.37,-110.09C232.57,-101.26 278.76,-87.74 312.13,-77.98"/>
<polygon fill="#63b8ff" stroke="#63b8ff" points="312.86,-81.12 321.47,-74.95 310.89,-74.4 312.86,-81.12"/>
</g>
<!-- Node9 -->
<g id="node9" class="node">
<title>Node9</title>
<g id="a_node9"><a xlink:title=" ">
<polygon fill="#e0e0e0" stroke="#999999" points="265.25,-19.25 205.75,-19.25 205.75,0 265.25,0 265.25,-19.25"/>
<text text-anchor="middle" x="235.5" y="-5.75" font-family="Helvetica,sans-Serif" font-size="10.00">x86intrin.h</text>
</a>
</g>
</g>
<!-- Node8&#45;&gt;Node9 -->
<g id="edge8" class="edge">
<title>Node8&#45;&gt;Node9</title>
<path fill="none" stroke="#63b8ff" d="M333.48,-54.84C314.84,-46.43 286.78,-33.77 265.47,-24.15"/>
<polygon fill="#63b8ff" stroke="#63b8ff" points="267.17,-20.63 256.62,-19.7 264.29,-27.01 267.17,-20.63"/>
</g>
<!-- Node10 -->
<g id="node10" class="node">
<title>Node10</title>
<g id="a_node10"><a xlink:title=" ">
<polygon fill="#e0e0e0" stroke="#999999" points="343.62,-19.25 283.38,-19.25 283.38,0 343.62,0 343.62,-19.25"/>
<text text-anchor="middle" x="313.5" y="-5.75" font-family="Helvetica,sans-Serif" font-size="10.00">sys/time.h</text>
</a>
</g>
</g>
<!-- Node8&#45;&gt;Node10 -->
<g id="edge9" class="edge">
<title>Node8&#45;&gt;Node10</title>
<path fill="none" stroke="#63b8ff" d="M346.89,-55.08C341.43,-47.8 333.49,-37.23 326.72,-28.23"/>
<polygon fill="#63b8ff" stroke="#63b8ff" points="329.05,-26.5 320.25,-20.61 323.46,-30.71 329.05,-26.5"/>
</g>
<!-- Node11 -->
<g id="node11" class="node">
<title>Node11</title>
<g id="a_node11"><a xlink:href="../../d8/d03/Export_8hpp.html" target="_top" xlink:title=" ">
<polygon fill="white" stroke="#666666" points="423,-19.25 362,-19.25 362,0 423,0 423,-19.25"/>
<text text-anchor="middle" x="392.5" y="-5.75" font-family="Helvetica,sans-Serif" font-size="10.00">Export.hpp</text>
</a>
</g>
</g>
<!-- Node8&#45;&gt;Node11 -->
<g id="edge10" class="edge">
<title>Node8&#45;&gt;Node11</title>
<path fill="none" stroke="#63b8ff" d="M359.94,-55.08C365.27,-47.8 373.01,-37.23 379.61,-28.23"/>
<polygon fill="#63b8ff" stroke="#63b8ff" points="382.83,-30.74 385.92,-20.61 377.19,-26.61 382.83,-30.74"/>
</g>
<!-- Node12 -->
<g id="node12" class="node">
<title>Node12</title>
<g id="a_node12"><a xlink:href="../../d5/d04/Types_8hpp.html" target="_top" xlink:title=" ">
<polygon fill="white" stroke="#666666" points="501.62,-19.25 441.38,-19.25 441.38,0 501.62,0 501.62,-19.25"/>
<text text-anchor="middle" x="471.5" y="-5.75" font-family="Helvetica,sans-Serif" font-size="10.00">Types.hpp</text>
</a>
</g>
</g>
<!-- Node8&#45;&gt;Node12 -->
<g id="edge11" class="edge">
<title>Node8&#45;&gt;Node12</title>
<path fill="none" stroke="#63b8ff" d="M373.52,-54.84C392.16,-46.43 420.22,-33.77 441.53,-24.15"/>
<polygon fill="#63b8ff" stroke="#63b8ff" points="442.71,-27.01 450.38,-19.7 439.83,-20.63 442.71,-27.01"/>
</g>
</g>
</svg>
