<?xml version="1.0" encoding="UTF-8" standalone="no"?>
<!DOCTYPE svg PUBLIC "-//W3C//DTD SVG 1.1//EN"
 "http://www.w3.org/Graphics/SVG/1.1/DTD/svg11.dtd">
<!-- Generated by graphviz version 8.0.5 (20230430.1635)
 -->
<!-- Title: src/Profile/Profiler.cpp Pages: 1 -->
<!--zoomable 193 -->
<svg id="main" version="1.1" xmlns="http://www.w3.org/2000/svg" xmlns:xlink="http://www.w3.org/1999/xlink" xml:space="preserve" onload="init(evt)">
<style type="text/css"><![CDATA[
.edge:hover path { stroke: red; }
.edge:hover polygon { stroke: red; fill: red; }
]]></style>
<script type="text/javascript"><![CDATA[
var edges = document.getElementsByTagName('g');
if (edges && edges.length) {
  for (var i=0;i<edges.length;i++) {
    if (edges[i].id.substr(0,4)=='edge') {
      edges[i].setAttribute('class','edge');
    }
  }
}
]]></script>
        <defs>
                <circle id="rim" cx="0" cy="0" r="7"/>
                <circle id="rim2" cx="0" cy="0" r="3.5"/>
                <g id="zoomPlus">
                        <use xlink:href="#rim" fill="#404040">
                                <set attributeName="fill" to="#808080" begin="zoomplus.mouseover" end="zoomplus.mouseout"/>
                        </use>
                        <path d="M-4,0h8M0,-4v8" fill="none" stroke="white" stroke-width="1.5" pointer-events="none"/>
                </g>
                <g id="zoomMin">
                        <use xlink:href="#rim" fill="#404040">
                                <set attributeName="fill" to="#808080" begin="zoomminus.mouseover" end="zoomminus.mouseout"/>
                        </use>
                        <path d="M-4,0h8" fill="none" stroke="white" stroke-width="1.5" pointer-events="none"/>
                </g>
                <g id="dirArrow">
                        <path fill="none" stroke="white" stroke-width="1.5" d="M0,-3.0v7 M-2.5,-0.5L0,-3.0L2.5,-0.5"/>
                </g>
               <g id="resetDef">
                       <use xlink:href="#rim2" fill="#404040">
                               <set attributeName="fill" to="#808080" begin="reset.mouseover" end="reset.mouseout"/>
                       </use>
               </g>
        </defs>

<script type="text/javascript">
var viewWidth = 660;
var viewHeight = 193;
var sectionId = 'dynsection-0';
</script>
<script xlink:href="../../svgpan.js"/>
<svg id="graph" class="graph">
<g id="viewport">
<title>src/Profile/Profiler.cpp</title>
<!-- Node1 -->
<g id="node1" class="node">
<title>Node1</title>
<g id="a_node1"><a xlink:title=" ">
<polygon fill="#999999" stroke="#666666" points="169.75,-185 59.25,-185 59.25,-165.75 169.75,-165.75 169.75,-185"/>
<text text-anchor="middle" x="114.5" y="-171.5" font-family="Helvetica,sans-Serif" font-size="10.00">src/Profile/Profiler.cpp</text>
</a>
</g>
</g>
<!-- Node2 -->
<g id="node2" class="node">
<title>Node2</title>
<g id="a_node2"><a xlink:title=" ">
<polygon fill="#e0e0e0" stroke="#999999" points="43,-129.75 0,-129.75 0,-110.5 43,-110.5 43,-129.75"/>
<text text-anchor="middle" x="21.5" y="-116.25" font-family="Helvetica,sans-Serif" font-size="10.00">cmath</text>
</a>
</g>
</g>
<!-- Node1&#45;&gt;Node2 -->
<g id="edge1" class="edge">
<title>Node1&#45;&gt;Node2</title>
<path fill="none" stroke="#63b8ff" d="M98.72,-165.34C84.43,-157.16 63.12,-144.96 46.51,-135.44"/>
<polygon fill="#63b8ff" stroke="#63b8ff" points="48.77,-132.13 38.35,-130.2 45.29,-138.21 48.77,-132.13"/>
</g>
<!-- Node3 -->
<g id="node3" class="node">
<title>Node3</title>
<g id="a_node3"><a xlink:title=" ">
<polygon fill="#e0e0e0" stroke="#999999" points="106.12,-129.75 60.88,-129.75 60.88,-110.5 106.12,-110.5 106.12,-129.75"/>
<text text-anchor="middle" x="83.5" y="-116.25" font-family="Helvetica,sans-Serif" font-size="10.00">cstring</text>
</a>
</g>
</g>
<!-- Node1&#45;&gt;Node3 -->
<g id="edge2" class="edge">
<title>Node1&#45;&gt;Node3</title>
<path fill="none" stroke="#63b8ff" d="M109.38,-165.58C105.28,-158.53 99.38,-148.4 94.25,-139.58"/>
<polygon fill="#63b8ff" stroke="#63b8ff" points="96.79,-137.99 88.73,-131.11 90.74,-141.51 96.79,-137.99"/>
</g>
<!-- Node4 -->
<g id="node4" class="node">
<title>Node4</title>
<g id="a_node4"><a xlink:title=" ">
<polygon fill="#e0e0e0" stroke="#999999" points="168.75,-129.75 124.25,-129.75 124.25,-110.5 168.75,-110.5 168.75,-129.75"/>
<text text-anchor="middle" x="146.5" y="-116.25" font-family="Helvetica,sans-Serif" font-size="10.00">stdio.h</text>
</a>
</g>
</g>
<!-- Node1&#45;&gt;Node4 -->
<g id="edge3" class="edge">
<title>Node1&#45;&gt;Node4</title>
<path fill="none" stroke="#63b8ff" d="M119.78,-165.58C124.07,-158.46 130.24,-148.18 135.58,-139.3"/>
<polygon fill="#63b8ff" stroke="#63b8ff" points="138.95,-141.48 141.1,-131.11 132.95,-137.88 138.95,-141.48"/>
</g>
<!-- Node5 -->
<g id="node5" class="node">
<title>Node5</title>
<g id="a_node5"><a xlink:href="../../dc/d04/Profiler_8hpp.html" target="_top" xlink:title=" ">
<polygon fill="white" stroke="#666666" points="280.5,-129.75 186.5,-129.75 186.5,-110.5 280.5,-110.5 280.5,-129.75"/>
<text text-anchor="middle" x="233.5" y="-116.25" font-family="Helvetica,sans-Serif" font-size="10.00">Profile/Profiler.hpp</text>
</a>
</g>
</g>
<!-- Node1&#45;&gt;Node5 -->
<g id="edge4" class="edge">
<title>Node1&#45;&gt;Node5</title>
<path fill="none" stroke="#63b8ff" d="M134.69,-165.34C153.49,-156.93 181.78,-144.27 203.28,-134.65"/>
<polygon fill="#63b8ff" stroke="#63b8ff" points="204.52,-137.48 212.21,-130.2 201.66,-131.09 204.52,-137.48"/>
</g>
<!-- Node6 -->
<g id="node6" class="node">
<title>Node6</title>
<g id="a_node6"><a xlink:title=" ">
<polygon fill="#e0e0e0" stroke="#999999" points="99,-74.5 62,-74.5 62,-55.25 99,-55.25 99,-74.5"/>
<text text-anchor="middle" x="80.5" y="-61" font-family="Helvetica,sans-Serif" font-size="10.00">array</text>
</a>
</g>
</g>
<!-- Node5&#45;&gt;Node6 -->
<g id="edge5" class="edge">
<title>Node5&#45;&gt;Node6</title>
<path fill="none" stroke="#63b8ff" d="M207.55,-110.09C180.33,-100.62 137.67,-85.77 109.4,-75.93"/>
<polygon fill="#63b8ff" stroke="#63b8ff" points="110.92,-72.41 100.33,-72.43 108.62,-79.02 110.92,-72.41"/>
</g>
<!-- Node7 -->
<g id="node7" class="node">
<title>Node7</title>
<g id="a_node7"><a xlink:title=" ">
<polygon fill="#e0e0e0" stroke="#999999" points="159.62,-74.5 117.38,-74.5 117.38,-55.25 159.62,-55.25 159.62,-74.5"/>
<text text-anchor="middle" x="138.5" y="-61" font-family="Helvetica,sans-Serif" font-size="10.00">cstdio</text>
</a>
</g>
</g>
<!-- Node5&#45;&gt;Node7 -->
<g id="edge6" class="edge">
<title>Node5&#45;&gt;Node7</title>
<path fill="none" stroke="#63b8ff" d="M217.38,-110.09C202.78,-101.91 181.01,-89.71 164.04,-80.19"/>
<polygon fill="#63b8ff" stroke="#63b8ff" points="166.13,-76.79 155.69,-74.95 162.71,-82.9 166.13,-76.79"/>
</g>
<!-- Node8 -->
<g id="node8" class="node">
<title>Node8</title>
<g id="a_node8"><a xlink:title=" ">
<polygon fill="#e0e0e0" stroke="#999999" points="225.62,-74.5 177.38,-74.5 177.38,-55.25 225.62,-55.25 225.62,-74.5"/>
<text text-anchor="middle" x="201.5" y="-61" font-family="Helvetica,sans-Serif" font-size="10.00">cstdarg</text>
</a>
</g>
</g>
<!-- Node5&#45;&gt;Node8 -->
<g id="edge7" class="edge">
<title>Node5&#45;&gt;Node8</title>
<path fill="none" stroke="#63b8ff" d="M228.22,-110.33C223.93,-103.21 217.76,-92.93 212.42,-84.05"/>
<polygon fill="#63b8ff" stroke="#63b8ff" points="215.05,-82.63 206.9,-75.86 209.05,-86.23 215.05,-82.63"/>
</g>
<!-- Node9 -->
<g id="node9" class="node">
<title>Node9</title>
<g id="a_node9"><a xlink:title=" ">
<polygon fill="#e0e0e0" stroke="#999999" points="287,-74.5 244,-74.5 244,-55.25 287,-55.25 287,-74.5"/>
<text text-anchor="middle" x="265.5" y="-61" font-family="Helvetica,sans-Serif" font-size="10.00">vector</text>
</a>
</g>
</g>
<!-- Node5&#45;&gt;Node9 -->
<g id="edge8" class="edge">
<title>Node5&#45;&gt;Node9</title>
<path fill="none" stroke="#63b8ff" d="M238.78,-110.33C243.07,-103.21 249.24,-92.93 254.58,-84.05"/>
<polygon fill="#63b8ff" stroke="#63b8ff" points="257.95,-86.23 260.1,-75.86 251.95,-82.63 257.95,-86.23"/>
</g>
<!-- Node10 -->
<g id="node10" class="node">
<title>Node10</title>
<g id="a_node10"><a xlink:title=" ">
<polygon fill="#e0e0e0" stroke="#999999" points="366,-74.5 305,-74.5 305,-55.25 366,-55.25 366,-74.5"/>
<text text-anchor="middle" x="335.5" y="-61" font-family="Helvetica,sans-Serif" font-size="10.00">type_traits</text>
</a>
</g>
</g>
<!-- Node5&#45;&gt;Node10 -->
<g id="edge9" class="edge">
<title>Node5&#45;&gt;Node10</title>
<path fill="none" stroke="#63b8ff" d="M250.8,-110.09C266.63,-101.83 290.29,-89.48 308.58,-79.93"/>
<polygon fill="#63b8ff" stroke="#63b8ff" points="309.87,-82.68 317.11,-74.95 306.63,-76.48 309.87,-82.68"/>
</g>
<!-- Node11 -->
<g id="node11" class="node">
<title>Node11</title>
<g id="a_node11"><a xlink:href="../../dc/d03/OSStatistics_8hpp.html" target="_top" xlink:title=" ">
<polygon fill="white" stroke="#666666" points="473.25,-74.5 383.75,-74.5 383.75,-55.25 473.25,-55.25 473.25,-74.5"/>
<text text-anchor="middle" x="428.5" y="-61" font-family="Helvetica,sans-Serif" font-size="10.00">OSStatistics.hpp</text>
</a>
</g>
</g>
<!-- Node5&#45;&gt;Node11 -->
<g id="edge10" class="edge">
<title>Node5&#45;&gt;Node11</title>
<path fill="none" stroke="#63b8ff" d="M266.58,-110.09C299.22,-101.18 349.28,-87.51 385.1,-77.73"/>
<polygon fill="#63b8ff" stroke="#63b8ff" points="385.53,-80.96 394.26,-74.95 383.69,-74.21 385.53,-80.96"/>
</g>
<!-- Node12 -->
<g id="node12" class="node">
<title>Node12</title>
<g id="a_node12"><a xlink:title=" ">
<polygon fill="#e0e0e0" stroke="#999999" points="251.25,-19.25 191.75,-19.25 191.75,0 251.25,0 251.25,-19.25"/>
<text text-anchor="middle" x="221.5" y="-5.75" font-family="Helvetica,sans-Serif" font-size="10.00">x86intrin.h</text>
</a>
</g>
</g>
<!-- Node11&#45;&gt;Node12 -->
<g id="edge11" class="edge">
<title>Node11&#45;&gt;Node12</title>
<path fill="none" stroke="#63b8ff" d="M393.39,-54.84C357.01,-45.48 300.24,-30.88 261.99,-21.04"/>
<polygon fill="#63b8ff" stroke="#63b8ff" points="263.29,-17.5 252.73,-18.4 261.54,-24.28 263.29,-17.5"/>
</g>
<!-- Node13 -->
<g id="node13" class="node">
<title>Node13</title>
<g id="a_node13"><a xlink:title=" ">
<polygon fill="#e0e0e0" stroke="#999999" points="329.62,-19.25 269.38,-19.25 269.38,0 329.62,0 329.62,-19.25"/>
<text text-anchor="middle" x="299.5" y="-5.75" font-family="Helvetica,sans-Serif" font-size="10.00">sys/time.h</text>
</a>
</g>
</g>
<!-- Node11&#45;&gt;Node13 -->
<g id="edge12" class="edge">
<title>Node11&#45;&gt;Node13</title>
<path fill="none" stroke="#63b8ff" d="M406.62,-54.84C386.05,-46.35 355.01,-33.54 331.63,-23.89"/>
<polygon fill="#63b8ff" stroke="#63b8ff" points="333.07,-20.28 322.49,-19.7 330.4,-26.75 333.07,-20.28"/>
</g>
<!-- Node14 -->
<g id="node14" class="node">
<title>Node14</title>
<g id="a_node14"><a xlink:title=" ">
<polygon fill="#e0e0e0" stroke="#999999" points="427,-19.25 348,-19.25 348,0 427,0 427,-19.25"/>
<text text-anchor="middle" x="387.5" y="-5.75" font-family="Helvetica,sans-Serif" font-size="10.00">sys/resource.h</text>
</a>
</g>
</g>
<!-- Node11&#45;&gt;Node14 -->
<g id="edge13" class="edge">
<title>Node11&#45;&gt;Node14</title>
<path fill="none" stroke="#63b8ff" d="M421.73,-55.08C416.13,-47.8 407.99,-37.23 401.05,-28.23"/>
<polygon fill="#63b8ff" stroke="#63b8ff" points="403.29,-26.4 394.42,-20.61 397.74,-30.67 403.29,-26.4"/>
</g>
<!-- Node15 -->
<g id="node15" class="node">
<title>Node15</title>
<g id="a_node15"><a xlink:title=" ">
<polygon fill="#e0e0e0" stroke="#999999" points="494.38,-19.25 444.62,-19.25 444.62,0 494.38,0 494.38,-19.25"/>
<text text-anchor="middle" x="469.5" y="-5.75" font-family="Helvetica,sans-Serif" font-size="10.00">unistd.h</text>
</a>
</g>
</g>
<!-- Node11&#45;&gt;Node15 -->
<g id="edge14" class="edge">
<title>Node11&#45;&gt;Node15</title>
<path fill="none" stroke="#63b8ff" d="M435.27,-55.08C440.87,-47.8 449.01,-37.23 455.95,-28.23"/>
<polygon fill="#63b8ff" stroke="#63b8ff" points="459.26,-30.67 462.58,-20.61 453.71,-26.4 459.26,-30.67"/>
</g>
<!-- Node16 -->
<g id="node16" class="node">
<title>Node16</title>
<g id="a_node16"><a xlink:href="../../d8/d03/Export_8hpp.html" target="_top" xlink:title=" ">
<polygon fill="white" stroke="#666666" points="573,-19.25 512,-19.25 512,0 573,0 573,-19.25"/>
<text text-anchor="middle" x="542.5" y="-5.75" font-family="Helvetica,sans-Serif" font-size="10.00">Export.hpp</text>
</a>
</g>
</g>
<!-- Node11&#45;&gt;Node16 -->
<g id="edge15" class="edge">
<title>Node11&#45;&gt;Node16</title>
<path fill="none" stroke="#63b8ff" d="M447.84,-54.84C465.77,-46.47 492.71,-33.88 513.27,-24.28"/>
<polygon fill="#63b8ff" stroke="#63b8ff" points="514.49,-27.11 522.07,-19.7 511.53,-20.76 514.49,-27.11"/>
</g>
<!-- Node17 -->
<g id="node17" class="node">
<title>Node17</title>
<g id="a_node17"><a xlink:href="../../d5/d04/Types_8hpp.html" target="_top" xlink:title=" ">
<polygon fill="white" stroke="#666666" points="651.62,-19.25 591.38,-19.25 591.38,0 651.62,0 651.62,-19.25"/>
<text text-anchor="middle" x="621.5" y="-5.75" font-family="Helvetica,sans-Serif" font-size="10.00">Types.hpp</text>
</a>
</g>
</g>
<!-- Node11&#45;&gt;Node17 -->
<g id="edge16" class="edge">
<title>Node11&#45;&gt;Node17</title>
<path fill="none" stroke="#63b8ff" d="M461.24,-54.84C494.18,-45.75 545.07,-31.71 580.64,-21.9"/>
<polygon fill="#63b8ff" stroke="#63b8ff" points="581.44,-25.03 590.15,-19 579.58,-18.29 581.44,-25.03"/>
</g>
</g>
</svg>
        <g id="navigator" transform="translate(0 0)" fill="#404254">
                <rect fill="#f2f5e9" fill-opacity="0.5" stroke="#606060" stroke-width=".5" x="0" y="0" width="60" height="60"/>
                <use id="zoomplus" xlink:href="#zoomPlus" x="17" y="9" onmousedown="handleZoom(evt,'in')"/>
                <use id="zoomminus" xlink:href="#zoomMin" x="42" y="9" onmousedown="handleZoom(evt,'out')"/>
                <use id="reset" xlink:href="#resetDef" x="30" y="36" onmousedown="handleReset()"/>
                <g id="arrowUp" xlink:href="#dirArrow" transform="translate(30 24)" onmousedown="handlePan(0,-1)">
                  <use xlink:href="#rim" fill="#404040">
                        <set attributeName="fill" to="#808080" begin="arrowUp.mouseover" end="arrowUp.mouseout"/>
                  </use>
                  <path fill="none" stroke="white" stroke-width="1.5" d="M0,-3.0v7 M-2.5,-0.5L0,-3.0L2.5,-0.5"/>
                </g>
                <g id="arrowRight" xlink:href="#dirArrow" transform="rotate(90) translate(36 -43)" onmousedown="handlePan(1,0)">
                  <use xlink:href="#rim" fill="#404040">
                        <set attributeName="fill" to="#808080" begin="arrowRight.mouseover" end="arrowRight.mouseout"/>
                  </use>
                  <path fill="none" stroke="white" stroke-width="1.5" d="M0,-3.0v7 M-2.5,-0.5L0,-3.0L2.5,-0.5"/>
                </g>
                <g id="arrowDown" xlink:href="#dirArrow" transform="rotate(180) translate(-30 -48)" onmousedown="handlePan(0,1)">
                  <use xlink:href="#rim" fill="#404040">
                        <set attributeName="fill" to="#808080" begin="arrowDown.mouseover" end="arrowDown.mouseout"/>
                  </use>
                  <path fill="none" stroke="white" stroke-width="1.5" d="M0,-3.0v7 M-2.5,-0.5L0,-3.0L2.5,-0.5"/>
                </g>
                <g id="arrowLeft" xlink:href="#dirArrow" transform="rotate(270) translate(-36 17)" onmousedown="handlePan(-1,0)">
                  <use xlink:href="#rim" fill="#404040">
                        <set attributeName="fill" to="#808080" begin="arrowLeft.mouseover" end="arrowLeft.mouseout"/>
                  </use>
                  <path fill="none" stroke="white" stroke-width="1.5" d="M0,-3.0v7 M-2.5,-0.5L0,-3.0L2.5,-0.5"/>
                </g>
        </g>
        <svg viewBox="0 0 15 15" width="100%" height="30px" preserveAspectRatio="xMaxYMin meet">
         <g id="arrow_out" transform="scale(0.3 0.3)">
          <a xlink:href="Profiler_8cpp__incl_org.svg" target="_base">
           <rect id="button" ry="5" rx="5" y="6" x="6" height="38" width="38"
                fill="#f2f5e9" fill-opacity="0.5" stroke="#606060" stroke-width="1.0"/>
           <path id="arrow"
             d="M 11.500037,31.436501 C 11.940474,20.09759 22.043105,11.32322 32.158766,21.979434 L 37.068811,17.246167 C 37.068811,17.246167 37.088388,32 37.088388,32 L 22.160133,31.978069 C 22.160133,31.978069 26.997745,27.140456 26.997745,27.140456 C 18.528582,18.264221 13.291696,25.230495 11.500037,31.436501 z"
             style="fill:#404040;"/>
          </a>
         </g>
        </svg>
</svg>
