<?xml version="1.0" encoding="UTF-8" standalone="no"?>
<!DOCTYPE svg PUBLIC "-//W3C//DTD SVG 1.1//EN"
 "http://www.w3.org/Graphics/SVG/1.1/DTD/svg11.dtd">
<!-- Generated by graphviz version 8.0.5 (20230430.1635)
 -->
<!-- Title: src/Profile/Profiler.cpp Pages: 1 -->
<svg width="443pt" height="193pt"
 viewBox="0.00 0.00 442.62 193.00" xmlns="http://www.w3.org/2000/svg" xmlns:xlink="http://www.w3.org/1999/xlink">
<g id="graph0" class="graph" transform="scale(1 1) rotate(0) translate(4 189)">
<title>src/Profile/Profiler.cpp</title>
<!-- Node1 -->
<g id="node1" class="node">
<title>Node1</title>
<g id="a_node1"><a xlink:title=" ">
<polygon fill="#999999" stroke="#666666" points="138.75,-185 28.25,-185 28.25,-165.75 138.75,-165.75 138.75,-185"/>
<text text-anchor="middle" x="83.5" y="-171.5" font-family="Helvetica,sans-Serif" font-size="10.00">src/Profile/Profiler.cpp</text>
</a>
</g>
</g>
<!-- Node2 -->
<g id="node2" class="node">
<title>Node2</title>
<g id="a_node2"><a xlink:title=" ">
<polygon fill="#e0e0e0" stroke="#999999" points="43,-129.75 0,-129.75 0,-110.5 43,-110.5 43,-129.75"/>
<text text-anchor="middle" x="21.5" y="-116.25" font-family="Helvetica,sans-Serif" font-size="10.00">cmath</text>
</a>
</g>
</g>
<!-- Node1&#45;&gt;Node2 -->
<g id="edge1" class="edge">
<title>Node1&#45;&gt;Node2</title>
<path fill="none" stroke="#63b8ff" d="M72.98,-165.34C64.02,-157.65 50.93,-146.4 40.19,-137.18"/>
<polygon fill="#63b8ff" stroke="#63b8ff" points="42.73,-133.89 32.86,-130.02 38.17,-139.2 42.73,-133.89"/>
</g>
<!-- Node3 -->
<g id="node3" class="node">
<title>Node3</title>
<g id="a_node3"><a xlink:title=" ">
<polygon fill="#e0e0e0" stroke="#999999" points="106.12,-129.75 60.88,-129.75 60.88,-110.5 106.12,-110.5 106.12,-129.75"/>
<text text-anchor="middle" x="83.5" y="-116.25" font-family="Helvetica,sans-Serif" font-size="10.00">cstring</text>
</a>
</g>
</g>
<!-- Node1&#45;&gt;Node3 -->
<g id="edge2" class="edge">
<title>Node1&#45;&gt;Node3</title>
<path fill="none" stroke="#63b8ff" d="M83.5,-165.58C83.5,-158.92 83.5,-149.49 83.5,-141.03"/>
<polygon fill="#63b8ff" stroke="#63b8ff" points="87,-141.11 83.5,-131.11 80,-141.11 87,-141.11"/>
</g>
<!-- Node4 -->
<g id="node4" class="node">
<title>Node4</title>
<g id="a_node4"><a xlink:href="../../dc/d04/Profiler_8hpp.html" target="_top" xlink:title=" ">
<polygon fill="white" stroke="#666666" points="218.5,-129.75 124.5,-129.75 124.5,-110.5 218.5,-110.5 218.5,-129.75"/>
<text text-anchor="middle" x="171.5" y="-116.25" font-family="Helvetica,sans-Serif" font-size="10.00">Profile/Profiler.hpp</text>
</a>
</g>
</g>
<!-- Node1&#45;&gt;Node4 -->
<g id="edge3" class="edge">
<title>Node1&#45;&gt;Node4</title>
<path fill="none" stroke="#63b8ff" d="M98.43,-165.34C111.83,-157.23 131.74,-145.18 147.4,-135.71"/>
<polygon fill="#63b8ff" stroke="#63b8ff" points="148.76,-138.37 155.5,-130.2 145.13,-132.39 148.76,-138.37"/>
</g>
<!-- Node5 -->
<g id="node5" class="node">
<title>Node5</title>
<g id="a_node5"><a xlink:title=" ">
<polygon fill="#e0e0e0" stroke="#999999" points="97,-74.5 60,-74.5 60,-55.25 97,-55.25 97,-74.5"/>
<text text-anchor="middle" x="78.5" y="-61" font-family="Helvetica,sans-Serif" font-size="10.00">array</text>
</a>
</g>
</g>
<!-- Node4&#45;&gt;Node5 -->
<g id="edge4" class="edge">
<title>Node4&#45;&gt;Node5</title>
<path fill="none" stroke="#63b8ff" d="M155.72,-110.09C141.43,-101.91 120.12,-89.71 103.51,-80.19"/>
<polygon fill="#63b8ff" stroke="#63b8ff" points="105.77,-76.88 95.35,-74.95 102.29,-82.96 105.77,-76.88"/>
</g>
<!-- Node6 -->
<g id="node6" class="node">
<title>Node6</title>
<g id="a_node6"><a xlink:title=" ">
<polygon fill="#e0e0e0" stroke="#999999" points="157.62,-74.5 115.38,-74.5 115.38,-55.25 157.62,-55.25 157.62,-74.5"/>
<text text-anchor="middle" x="136.5" y="-61" font-family="Helvetica,sans-Serif" font-size="10.00">cstdio</text>
</a>
</g>
</g>
<!-- Node4&#45;&gt;Node6 -->
<g id="edge5" class="edge">
<title>Node4&#45;&gt;Node6</title>
<path fill="none" stroke="#63b8ff" d="M165.72,-110.33C161.04,-103.21 154.28,-92.93 148.44,-84.05"/>
<polygon fill="#63b8ff" stroke="#63b8ff" points="150.82,-82.29 142.41,-75.86 144.97,-86.14 150.82,-82.29"/>
</g>
<!-- Node7 -->
<g id="node7" class="node">
<title>Node7</title>
<g id="a_node7"><a xlink:title=" ">
<polygon fill="#e0e0e0" stroke="#999999" points="237,-74.5 176,-74.5 176,-55.25 237,-55.25 237,-74.5"/>
<text text-anchor="middle" x="206.5" y="-61" font-family="Helvetica,sans-Serif" font-size="10.00">type_traits</text>
</a>
</g>
</g>
<!-- Node4&#45;&gt;Node7 -->
<g id="edge6" class="edge">
<title>Node4&#45;&gt;Node7</title>
<path fill="none" stroke="#63b8ff" d="M177.28,-110.33C181.96,-103.21 188.72,-92.93 194.56,-84.05"/>
<polygon fill="#63b8ff" stroke="#63b8ff" points="198.03,-86.14 200.59,-75.86 192.18,-82.29 198.03,-86.14"/>
</g>
<!-- Node8 -->
<g id="node8" class="node">
<title>Node8</title>
<g id="a_node8"><a xlink:href="../../d7/d04/Timing_8hpp.html" target="_top" xlink:title=" ">
<polygon fill="white" stroke="#666666" points="318.12,-74.5 254.88,-74.5 254.88,-55.25 318.12,-55.25 318.12,-74.5"/>
<text text-anchor="middle" x="286.5" y="-61" font-family="Helvetica,sans-Serif" font-size="10.00">Timing.hpp</text>
</a>
</g>
</g>
<!-- Node4&#45;&gt;Node8 -->
<g id="edge7" class="edge">
<title>Node4&#45;&gt;Node8</title>
<path fill="none" stroke="#63b8ff" d="M191.01,-110.09C209.1,-101.72 236.27,-89.13 257.01,-79.53"/>
<polygon fill="#63b8ff" stroke="#63b8ff" points="258.29,-82.33 265.9,-74.95 255.35,-75.98 258.29,-82.33"/>
</g>
<!-- Node9 -->
<g id="node9" class="node">
<title>Node9</title>
<g id="a_node9"><a xlink:title=" ">
<polygon fill="#e0e0e0" stroke="#999999" points="198.25,-19.25 138.75,-19.25 138.75,0 198.25,0 198.25,-19.25"/>
<text text-anchor="middle" x="168.5" y="-5.75" font-family="Helvetica,sans-Serif" font-size="10.00">x86intrin.h</text>
</a>
</g>
</g>
<!-- Node8&#45;&gt;Node9 -->
<g id="edge8" class="edge">
<title>Node8&#45;&gt;Node9</title>
<path fill="none" stroke="#63b8ff" d="M266.48,-54.84C247.84,-46.43 219.78,-33.77 198.47,-24.15"/>
<polygon fill="#63b8ff" stroke="#63b8ff" points="200.17,-20.63 189.62,-19.7 197.29,-27.01 200.17,-20.63"/>
</g>
<!-- Node10 -->
<g id="node10" class="node">
<title>Node10</title>
<g id="a_node10"><a xlink:title=" ">
<polygon fill="#e0e0e0" stroke="#999999" points="276.62,-19.25 216.38,-19.25 216.38,0 276.62,0 276.62,-19.25"/>
<text text-anchor="middle" x="246.5" y="-5.75" font-family="Helvetica,sans-Serif" font-size="10.00">sys/time.h</text>
</a>
</g>
</g>
<!-- Node8&#45;&gt;Node10 -->
<g id="edge9" class="edge">
<title>Node8&#45;&gt;Node10</title>
<path fill="none" stroke="#63b8ff" d="M279.89,-55.08C274.43,-47.8 266.49,-37.23 259.72,-28.23"/>
<polygon fill="#63b8ff" stroke="#63b8ff" points="262.05,-26.5 253.25,-20.61 256.46,-30.71 262.05,-26.5"/>
</g>
<!-- Node11 -->
<g id="node11" class="node">
<title>Node11</title>
<g id="a_node11"><a xlink:href="../../d8/d03/Export_8hpp.html" target="_top" xlink:title=" ">
<polygon fill="white" stroke="#666666" points="356,-19.25 295,-19.25 295,0 356,0 356,-19.25"/>
<text text-anchor="middle" x="325.5" y="-5.75" font-family="Helvetica,sans-Serif" font-size="10.00">Export.hpp</text>
</a>
</g>
</g>
<!-- Node8&#45;&gt;Node11 -->
<g id="edge10" class="edge">
<title>Node8&#45;&gt;Node11</title>
<path fill="none" stroke="#63b8ff" d="M292.94,-55.08C298.27,-47.8 306.01,-37.23 312.61,-28.23"/>
<polygon fill="#63b8ff" stroke="#63b8ff" points="315.83,-30.74 318.92,-20.61 310.19,-26.61 315.83,-30.74"/>
</g>
<!-- Node12 -->
<g id="node12" class="node">
<title>Node12</title>
<g id="a_node12"><a xlink:href="../../d5/d04/Types_8hpp.html" target="_top" xlink:title=" ">
<polygon fill="white" stroke="#666666" points="434.62,-19.25 374.38,-19.25 374.38,0 434.62,0 434.62,-19.25"/>
<text text-anchor="middle" x="404.5" y="-5.75" font-family="Helvetica,sans-Serif" font-size="10.00">Types.hpp</text>
</a>
</g>
</g>
<!-- Node8&#45;&gt;Node12 -->
<g id="edge11" class="edge">
<title>Node8&#45;&gt;Node12</title>
<path fill="none" stroke="#63b8ff" d="M306.52,-54.84C325.16,-46.43 353.22,-33.77 374.53,-24.15"/>
<polygon fill="#63b8ff" stroke="#63b8ff" points="375.71,-27.01 383.38,-19.7 372.83,-20.63 375.71,-27.01"/>
</g>
</g>
</svg>
