<?xml version="1.0" encoding="UTF-8" standalone="no"?>
<!DOCTYPE svg PUBLIC "-//W3C//DTD SVG 1.1//EN"
 "http://www.w3.org/Graphics/SVG/1.1/DTD/svg11.dtd">
<!-- Generated by graphviz version 8.0.5 (20230430.1635)
 -->
<!-- Title: Profile::RepetitionTest Pages: 1 -->
<svg width="296pt" height="88pt"
 viewBox="0.00 0.00 295.75 87.50" xmlns="http://www.w3.org/2000/svg" xmlns:xlink="http://www.w3.org/1999/xlink">
<g id="graph0" class="graph" transform="scale(1 1) rotate(0) translate(4 83.5)">
<title>Profile::RepetitionTest</title>
<!-- Node1 -->
<g id="node1" class="node">
<title>Node1</title>
<g id="a_node1"><a xlink:title="A functor to wrap around code that will be profiled multiple times via the Profile::RepetitionProfile...">
<polygon fill="#999999" stroke="#666666" points="110.5,-48.88 0,-48.88 0,-29.62 110.5,-29.62 110.5,-48.88"/>
<text text-anchor="middle" x="55.25" y="-35.38" font-family="Helvetica,sans-Serif" font-size="10.00">Profile::RepetitionTest</text>
</a>
</g>
</g>
<!-- Node2 -->
<g id="node2" class="node">
<title>Node2</title>
<g id="a_node2"><a xlink:href="../../d5/d05/structRepetitionTest__TestFunction__ProfileBlock.html" target="_top" xlink:title="A wrapper around the TestFunction_ProfileBlock when it will be used TestFunction_FixedRepetitionTesti...">
<polygon fill="white" stroke="#666666" points="287.75,-79.5 146.5,-79.5 146.5,-49 287.75,-49 287.75,-79.5"/>
<text text-anchor="start" x="154.5" y="-66" font-family="Helvetica,sans-Serif" font-size="10.00">RepetitionTest_TestFunction</text>
<text text-anchor="middle" x="217.12" y="-54.75" font-family="Helvetica,sans-Serif" font-size="10.00">_ProfileBlock</text>
</a>
</g>
</g>
<!-- Node1&#45;&gt;Node2 -->
<g id="edge1" class="edge">
<title>Node1&#45;&gt;Node2</title>
<path fill="none" stroke="#63b8ff" d="M121.42,-49.44C129.61,-50.72 138,-52.03 146.25,-53.32"/>
<polygon fill="#63b8ff" stroke="#63b8ff" points="122.24,-45.87 111.82,-47.78 121.16,-52.79 122.24,-45.87"/>
</g>
<!-- Node3 -->
<g id="node3" class="node">
<title>Node3</title>
<g id="a_node3"><a xlink:href="../../df/d04/structRepetitionTest__TestFunction__ProfileFunction.html" target="_top" xlink:title="A wrapper around the TestFunction_ProfileFunction when it will be used TestFunction_FixedRepetitionTe...">
<polygon fill="white" stroke="#666666" points="287.75,-30.5 146.5,-30.5 146.5,0 287.75,0 287.75,-30.5"/>
<text text-anchor="start" x="154.5" y="-17" font-family="Helvetica,sans-Serif" font-size="10.00">RepetitionTest_TestFunction</text>
<text text-anchor="middle" x="217.12" y="-5.75" font-family="Helvetica,sans-Serif" font-size="10.00">_ProfileFunction</text>
</a>
</g>
</g>
<!-- Node1&#45;&gt;Node3 -->
<g id="edge2" class="edge">
<title>Node1&#45;&gt;Node3</title>
<path fill="none" stroke="#63b8ff" d="M121.7,-29.42C129.79,-28.21 138.09,-26.96 146.25,-25.74"/>
<polygon fill="#63b8ff" stroke="#63b8ff" points="121.19,-26.11 111.82,-31.06 122.23,-33.03 121.19,-26.11"/>
</g>
</g>
</svg>
