<?xml version="1.0" encoding="UTF-8" standalone="no"?>
<!DOCTYPE svg PUBLIC "-//W3C//DTD SVG 1.1//EN"
 "http://www.w3.org/Graphics/SVG/1.1/DTD/svg11.dtd">
<!-- Generated by graphviz version 8.0.5 (20230430.1635)
 -->
<!-- Title: headers/Profile/Profiler.hpp Pages: 1 -->
<svg width="383pt" height="138pt"
 viewBox="0.00 0.00 382.62 137.75" xmlns="http://www.w3.org/2000/svg" xmlns:xlink="http://www.w3.org/1999/xlink">
<g id="graph0" class="graph" transform="scale(1 1) rotate(0) translate(4 133.75)">
<title>headers/Profile/Profiler.hpp</title>
<!-- Node1 -->
<g id="node1" class="node">
<title>Node1</title>
<g id="a_node1"><a xlink:title=" ">
<polygon fill="#999999" stroke="#666666" points="177.25,-129.75 45.75,-129.75 45.75,-110.5 177.25,-110.5 177.25,-129.75"/>
<text text-anchor="middle" x="111.5" y="-116.25" font-family="Helvetica,sans-Serif" font-size="10.00">headers/Profile/Profiler.hpp</text>
</a>
</g>
</g>
<!-- Node2 -->
<g id="node2" class="node">
<title>Node2</title>
<g id="a_node2"><a xlink:title=" ">
<polygon fill="#e0e0e0" stroke="#999999" points="37,-74.5 0,-74.5 0,-55.25 37,-55.25 37,-74.5"/>
<text text-anchor="middle" x="18.5" y="-61" font-family="Helvetica,sans-Serif" font-size="10.00">array</text>
</a>
</g>
</g>
<!-- Node1&#45;&gt;Node2 -->
<g id="edge1" class="edge">
<title>Node1&#45;&gt;Node2</title>
<path fill="none" stroke="#63b8ff" d="M95.72,-110.09C81.43,-101.91 60.12,-89.71 43.51,-80.19"/>
<polygon fill="#63b8ff" stroke="#63b8ff" points="45.77,-76.88 35.35,-74.95 42.29,-82.96 45.77,-76.88"/>
</g>
<!-- Node3 -->
<g id="node3" class="node">
<title>Node3</title>
<g id="a_node3"><a xlink:title=" ">
<polygon fill="#e0e0e0" stroke="#999999" points="97.62,-74.5 55.38,-74.5 55.38,-55.25 97.62,-55.25 97.62,-74.5"/>
<text text-anchor="middle" x="76.5" y="-61" font-family="Helvetica,sans-Serif" font-size="10.00">cstdio</text>
</a>
</g>
</g>
<!-- Node1&#45;&gt;Node3 -->
<g id="edge2" class="edge">
<title>Node1&#45;&gt;Node3</title>
<path fill="none" stroke="#63b8ff" d="M105.72,-110.33C101.04,-103.21 94.28,-92.93 88.44,-84.05"/>
<polygon fill="#63b8ff" stroke="#63b8ff" points="90.82,-82.29 82.41,-75.86 84.97,-86.14 90.82,-82.29"/>
</g>
<!-- Node4 -->
<g id="node4" class="node">
<title>Node4</title>
<g id="a_node4"><a xlink:title=" ">
<polygon fill="#e0e0e0" stroke="#999999" points="177,-74.5 116,-74.5 116,-55.25 177,-55.25 177,-74.5"/>
<text text-anchor="middle" x="146.5" y="-61" font-family="Helvetica,sans-Serif" font-size="10.00">type_traits</text>
</a>
</g>
</g>
<!-- Node1&#45;&gt;Node4 -->
<g id="edge3" class="edge">
<title>Node1&#45;&gt;Node4</title>
<path fill="none" stroke="#63b8ff" d="M117.28,-110.33C121.96,-103.21 128.72,-92.93 134.56,-84.05"/>
<polygon fill="#63b8ff" stroke="#63b8ff" points="138.03,-86.14 140.59,-75.86 132.18,-82.29 138.03,-86.14"/>
</g>
<!-- Node5 -->
<g id="node5" class="node">
<title>Node5</title>
<g id="a_node5"><a xlink:href="../../d7/d04/Timing_8hpp.html" target="_top" xlink:title=" ">
<polygon fill="white" stroke="#666666" points="258.12,-74.5 194.88,-74.5 194.88,-55.25 258.12,-55.25 258.12,-74.5"/>
<text text-anchor="middle" x="226.5" y="-61" font-family="Helvetica,sans-Serif" font-size="10.00">Timing.hpp</text>
</a>
</g>
</g>
<!-- Node1&#45;&gt;Node5 -->
<g id="edge4" class="edge">
<title>Node1&#45;&gt;Node5</title>
<path fill="none" stroke="#63b8ff" d="M131.01,-110.09C149.1,-101.72 176.27,-89.13 197.01,-79.53"/>
<polygon fill="#63b8ff" stroke="#63b8ff" points="198.29,-82.33 205.9,-74.95 195.35,-75.98 198.29,-82.33"/>
</g>
<!-- Node6 -->
<g id="node6" class="node">
<title>Node6</title>
<g id="a_node6"><a xlink:title=" ">
<polygon fill="#e0e0e0" stroke="#999999" points="138.25,-19.25 78.75,-19.25 78.75,0 138.25,0 138.25,-19.25"/>
<text text-anchor="middle" x="108.5" y="-5.75" font-family="Helvetica,sans-Serif" font-size="10.00">x86intrin.h</text>
</a>
</g>
</g>
<!-- Node5&#45;&gt;Node6 -->
<g id="edge5" class="edge">
<title>Node5&#45;&gt;Node6</title>
<path fill="none" stroke="#63b8ff" d="M206.48,-54.84C187.84,-46.43 159.78,-33.77 138.47,-24.15"/>
<polygon fill="#63b8ff" stroke="#63b8ff" points="140.17,-20.63 129.62,-19.7 137.29,-27.01 140.17,-20.63"/>
</g>
<!-- Node7 -->
<g id="node7" class="node">
<title>Node7</title>
<g id="a_node7"><a xlink:title=" ">
<polygon fill="#e0e0e0" stroke="#999999" points="216.62,-19.25 156.38,-19.25 156.38,0 216.62,0 216.62,-19.25"/>
<text text-anchor="middle" x="186.5" y="-5.75" font-family="Helvetica,sans-Serif" font-size="10.00">sys/time.h</text>
</a>
</g>
</g>
<!-- Node5&#45;&gt;Node7 -->
<g id="edge6" class="edge">
<title>Node5&#45;&gt;Node7</title>
<path fill="none" stroke="#63b8ff" d="M219.89,-55.08C214.43,-47.8 206.49,-37.23 199.72,-28.23"/>
<polygon fill="#63b8ff" stroke="#63b8ff" points="202.05,-26.5 193.25,-20.61 196.46,-30.71 202.05,-26.5"/>
</g>
<!-- Node8 -->
<g id="node8" class="node">
<title>Node8</title>
<g id="a_node8"><a xlink:href="../../d8/d03/Export_8hpp.html" target="_top" xlink:title=" ">
<polygon fill="white" stroke="#666666" points="296,-19.25 235,-19.25 235,0 296,0 296,-19.25"/>
<text text-anchor="middle" x="265.5" y="-5.75" font-family="Helvetica,sans-Serif" font-size="10.00">Export.hpp</text>
</a>
</g>
</g>
<!-- Node5&#45;&gt;Node8 -->
<g id="edge7" class="edge">
<title>Node5&#45;&gt;Node8</title>
<path fill="none" stroke="#63b8ff" d="M232.94,-55.08C238.27,-47.8 246.01,-37.23 252.61,-28.23"/>
<polygon fill="#63b8ff" stroke="#63b8ff" points="255.83,-30.74 258.92,-20.61 250.19,-26.61 255.83,-30.74"/>
</g>
<!-- Node9 -->
<g id="node9" class="node">
<title>Node9</title>
<g id="a_node9"><a xlink:href="../../d5/d04/Types_8hpp.html" target="_top" xlink:title=" ">
<polygon fill="white" stroke="#666666" points="374.62,-19.25 314.38,-19.25 314.38,0 374.62,0 374.62,-19.25"/>
<text text-anchor="middle" x="344.5" y="-5.75" font-family="Helvetica,sans-Serif" font-size="10.00">Types.hpp</text>
</a>
</g>
</g>
<!-- Node5&#45;&gt;Node9 -->
<g id="edge8" class="edge">
<title>Node5&#45;&gt;Node9</title>
<path fill="none" stroke="#63b8ff" d="M246.52,-54.84C265.16,-46.43 293.22,-33.77 314.53,-24.15"/>
<polygon fill="#63b8ff" stroke="#63b8ff" points="315.71,-27.01 323.38,-19.7 312.83,-20.63 315.71,-27.01"/>
</g>
</g>
</svg>
