<?xml version="1.0" encoding="UTF-8" standalone="no"?>
<!DOCTYPE svg PUBLIC "-//W3C//DTD SVG 1.1//EN"
 "http://www.w3.org/Graphics/SVG/1.1/DTD/svg11.dtd">
<!-- Generated by graphviz version 8.0.5 (20230430.1635)
 -->
<!-- Title: headers/Profile/Profiler.hpp Pages: 1 -->
<svg width="598pt" height="138pt"
 viewBox="0.00 0.00 597.62 137.75" xmlns="http://www.w3.org/2000/svg" xmlns:xlink="http://www.w3.org/1999/xlink">
<g id="graph0" class="graph" transform="scale(1 1) rotate(0) translate(4 133.75)">
<title>headers/Profile/Profiler.hpp</title>
<!-- Node1 -->
<g id="node1" class="node">
<title>Node1</title>
<g id="a_node1"><a xlink:title=" ">
<polygon fill="#999999" stroke="#666666" points="237.25,-129.75 105.75,-129.75 105.75,-110.5 237.25,-110.5 237.25,-129.75"/>
<text text-anchor="middle" x="171.5" y="-116.25" font-family="Helvetica,sans-Serif" font-size="10.00">headers/Profile/Profiler.hpp</text>
</a>
</g>
</g>
<!-- Node2 -->
<g id="node2" class="node">
<title>Node2</title>
<g id="a_node2"><a xlink:title=" ">
<polygon fill="#e0e0e0" stroke="#999999" points="37,-74.5 0,-74.5 0,-55.25 37,-55.25 37,-74.5"/>
<text text-anchor="middle" x="18.5" y="-61" font-family="Helvetica,sans-Serif" font-size="10.00">array</text>
</a>
</g>
</g>
<!-- Node1&#45;&gt;Node2 -->
<g id="edge1" class="edge">
<title>Node1&#45;&gt;Node2</title>
<path fill="none" stroke="#63b8ff" d="M145.55,-110.09C118.33,-100.62 75.67,-85.77 47.4,-75.93"/>
<polygon fill="#63b8ff" stroke="#63b8ff" points="48.92,-72.41 38.33,-72.43 46.62,-79.02 48.92,-72.41"/>
</g>
<!-- Node3 -->
<g id="node3" class="node">
<title>Node3</title>
<g id="a_node3"><a xlink:title=" ">
<polygon fill="#e0e0e0" stroke="#999999" points="97.62,-74.5 55.38,-74.5 55.38,-55.25 97.62,-55.25 97.62,-74.5"/>
<text text-anchor="middle" x="76.5" y="-61" font-family="Helvetica,sans-Serif" font-size="10.00">cstdio</text>
</a>
</g>
</g>
<!-- Node1&#45;&gt;Node3 -->
<g id="edge2" class="edge">
<title>Node1&#45;&gt;Node3</title>
<path fill="none" stroke="#63b8ff" d="M155.38,-110.09C140.78,-101.91 119.01,-89.71 102.04,-80.19"/>
<polygon fill="#63b8ff" stroke="#63b8ff" points="104.13,-76.79 93.69,-74.95 100.71,-82.9 104.13,-76.79"/>
</g>
<!-- Node4 -->
<g id="node4" class="node">
<title>Node4</title>
<g id="a_node4"><a xlink:title=" ">
<polygon fill="#e0e0e0" stroke="#999999" points="163.62,-74.5 115.38,-74.5 115.38,-55.25 163.62,-55.25 163.62,-74.5"/>
<text text-anchor="middle" x="139.5" y="-61" font-family="Helvetica,sans-Serif" font-size="10.00">cstdarg</text>
</a>
</g>
</g>
<!-- Node1&#45;&gt;Node4 -->
<g id="edge3" class="edge">
<title>Node1&#45;&gt;Node4</title>
<path fill="none" stroke="#63b8ff" d="M166.22,-110.33C161.93,-103.21 155.76,-92.93 150.42,-84.05"/>
<polygon fill="#63b8ff" stroke="#63b8ff" points="153.05,-82.63 144.9,-75.86 147.05,-86.23 153.05,-82.63"/>
</g>
<!-- Node5 -->
<g id="node5" class="node">
<title>Node5</title>
<g id="a_node5"><a xlink:title=" ">
<polygon fill="#e0e0e0" stroke="#999999" points="225,-74.5 182,-74.5 182,-55.25 225,-55.25 225,-74.5"/>
<text text-anchor="middle" x="203.5" y="-61" font-family="Helvetica,sans-Serif" font-size="10.00">vector</text>
</a>
</g>
</g>
<!-- Node1&#45;&gt;Node5 -->
<g id="edge4" class="edge">
<title>Node1&#45;&gt;Node5</title>
<path fill="none" stroke="#63b8ff" d="M176.78,-110.33C181.07,-103.21 187.24,-92.93 192.58,-84.05"/>
<polygon fill="#63b8ff" stroke="#63b8ff" points="195.95,-86.23 198.1,-75.86 189.95,-82.63 195.95,-86.23"/>
</g>
<!-- Node6 -->
<g id="node6" class="node">
<title>Node6</title>
<g id="a_node6"><a xlink:title=" ">
<polygon fill="#e0e0e0" stroke="#999999" points="304,-74.5 243,-74.5 243,-55.25 304,-55.25 304,-74.5"/>
<text text-anchor="middle" x="273.5" y="-61" font-family="Helvetica,sans-Serif" font-size="10.00">type_traits</text>
</a>
</g>
</g>
<!-- Node1&#45;&gt;Node6 -->
<g id="edge5" class="edge">
<title>Node1&#45;&gt;Node6</title>
<path fill="none" stroke="#63b8ff" d="M188.8,-110.09C204.63,-101.83 228.29,-89.48 246.58,-79.93"/>
<polygon fill="#63b8ff" stroke="#63b8ff" points="247.87,-82.68 255.11,-74.95 244.63,-76.48 247.87,-82.68"/>
</g>
<!-- Node7 -->
<g id="node7" class="node">
<title>Node7</title>
<g id="a_node7"><a xlink:href="../../dc/d03/OSStatistics_8hpp.html" target="_top" xlink:title=" ">
<polygon fill="white" stroke="#666666" points="411.25,-74.5 321.75,-74.5 321.75,-55.25 411.25,-55.25 411.25,-74.5"/>
<text text-anchor="middle" x="366.5" y="-61" font-family="Helvetica,sans-Serif" font-size="10.00">OSStatistics.hpp</text>
</a>
</g>
</g>
<!-- Node1&#45;&gt;Node7 -->
<g id="edge6" class="edge">
<title>Node1&#45;&gt;Node7</title>
<path fill="none" stroke="#63b8ff" d="M204.58,-110.09C237.22,-101.18 287.28,-87.51 323.1,-77.73"/>
<polygon fill="#63b8ff" stroke="#63b8ff" points="323.53,-80.96 332.26,-74.95 321.69,-74.21 323.53,-80.96"/>
</g>
<!-- Node8 -->
<g id="node8" class="node">
<title>Node8</title>
<g id="a_node8"><a xlink:title=" ">
<polygon fill="#e0e0e0" stroke="#999999" points="189.25,-19.25 129.75,-19.25 129.75,0 189.25,0 189.25,-19.25"/>
<text text-anchor="middle" x="159.5" y="-5.75" font-family="Helvetica,sans-Serif" font-size="10.00">x86intrin.h</text>
</a>
</g>
</g>
<!-- Node7&#45;&gt;Node8 -->
<g id="edge7" class="edge">
<title>Node7&#45;&gt;Node8</title>
<path fill="none" stroke="#63b8ff" d="M331.39,-54.84C295.01,-45.48 238.24,-30.88 199.99,-21.04"/>
<polygon fill="#63b8ff" stroke="#63b8ff" points="201.29,-17.5 190.73,-18.4 199.54,-24.28 201.29,-17.5"/>
</g>
<!-- Node9 -->
<g id="node9" class="node">
<title>Node9</title>
<g id="a_node9"><a xlink:title=" ">
<polygon fill="#e0e0e0" stroke="#999999" points="267.62,-19.25 207.38,-19.25 207.38,0 267.62,0 267.62,-19.25"/>
<text text-anchor="middle" x="237.5" y="-5.75" font-family="Helvetica,sans-Serif" font-size="10.00">sys/time.h</text>
</a>
</g>
</g>
<!-- Node7&#45;&gt;Node9 -->
<g id="edge8" class="edge">
<title>Node7&#45;&gt;Node9</title>
<path fill="none" stroke="#63b8ff" d="M344.62,-54.84C324.05,-46.35 293.01,-33.54 269.63,-23.89"/>
<polygon fill="#63b8ff" stroke="#63b8ff" points="271.07,-20.28 260.49,-19.7 268.4,-26.75 271.07,-20.28"/>
</g>
<!-- Node10 -->
<g id="node10" class="node">
<title>Node10</title>
<g id="a_node10"><a xlink:title=" ">
<polygon fill="#e0e0e0" stroke="#999999" points="365,-19.25 286,-19.25 286,0 365,0 365,-19.25"/>
<text text-anchor="middle" x="325.5" y="-5.75" font-family="Helvetica,sans-Serif" font-size="10.00">sys/resource.h</text>
</a>
</g>
</g>
<!-- Node7&#45;&gt;Node10 -->
<g id="edge9" class="edge">
<title>Node7&#45;&gt;Node10</title>
<path fill="none" stroke="#63b8ff" d="M359.73,-55.08C354.13,-47.8 345.99,-37.23 339.05,-28.23"/>
<polygon fill="#63b8ff" stroke="#63b8ff" points="341.29,-26.4 332.42,-20.61 335.74,-30.67 341.29,-26.4"/>
</g>
<!-- Node11 -->
<g id="node11" class="node">
<title>Node11</title>
<g id="a_node11"><a xlink:title=" ">
<polygon fill="#e0e0e0" stroke="#999999" points="432.38,-19.25 382.62,-19.25 382.62,0 432.38,0 432.38,-19.25"/>
<text text-anchor="middle" x="407.5" y="-5.75" font-family="Helvetica,sans-Serif" font-size="10.00">unistd.h</text>
</a>
</g>
</g>
<!-- Node7&#45;&gt;Node11 -->
<g id="edge10" class="edge">
<title>Node7&#45;&gt;Node11</title>
<path fill="none" stroke="#63b8ff" d="M373.27,-55.08C378.87,-47.8 387.01,-37.23 393.95,-28.23"/>
<polygon fill="#63b8ff" stroke="#63b8ff" points="397.26,-30.67 400.58,-20.61 391.71,-26.4 397.26,-30.67"/>
</g>
<!-- Node12 -->
<g id="node12" class="node">
<title>Node12</title>
<g id="a_node12"><a xlink:href="../../d8/d03/Export_8hpp.html" target="_top" xlink:title=" ">
<polygon fill="white" stroke="#666666" points="511,-19.25 450,-19.25 450,0 511,0 511,-19.25"/>
<text text-anchor="middle" x="480.5" y="-5.75" font-family="Helvetica,sans-Serif" font-size="10.00">Export.hpp</text>
</a>
</g>
</g>
<!-- Node7&#45;&gt;Node12 -->
<g id="edge11" class="edge">
<title>Node7&#45;&gt;Node12</title>
<path fill="none" stroke="#63b8ff" d="M385.84,-54.84C403.77,-46.47 430.71,-33.88 451.27,-24.28"/>
<polygon fill="#63b8ff" stroke="#63b8ff" points="452.49,-27.11 460.07,-19.7 449.53,-20.76 452.49,-27.11"/>
</g>
<!-- Node13 -->
<g id="node13" class="node">
<title>Node13</title>
<g id="a_node13"><a xlink:href="../../d5/d04/Types_8hpp.html" target="_top" xlink:title=" ">
<polygon fill="white" stroke="#666666" points="589.62,-19.25 529.38,-19.25 529.38,0 589.62,0 589.62,-19.25"/>
<text text-anchor="middle" x="559.5" y="-5.75" font-family="Helvetica,sans-Serif" font-size="10.00">Types.hpp</text>
</a>
</g>
</g>
<!-- Node7&#45;&gt;Node13 -->
<g id="edge12" class="edge">
<title>Node7&#45;&gt;Node13</title>
<path fill="none" stroke="#63b8ff" d="M399.24,-54.84C432.18,-45.75 483.07,-31.71 518.64,-21.9"/>
<polygon fill="#63b8ff" stroke="#63b8ff" points="519.44,-25.03 528.15,-19 517.58,-18.29 519.44,-25.03"/>
</g>
</g>
</svg>
