<?xml version="1.0" encoding="UTF-8" standalone="no"?>
<!DOCTYPE svg PUBLIC "-//W3C//DTD SVG 1.1//EN"
 "http://www.w3.org/Graphics/SVG/1.1/DTD/svg11.dtd">
<!-- Generated by graphviz version 8.0.5 (20230430.1635)
 -->
<!-- Title: src/Profile/Timing.cpp Pages: 1 -->
<svg width="224pt" height="138pt"
 viewBox="0.00 0.00 223.88 137.75" xmlns="http://www.w3.org/2000/svg" xmlns:xlink="http://www.w3.org/1999/xlink">
<g id="graph0" class="graph" transform="scale(1 1) rotate(0) translate(4 133.75)">
<title>src/Profile/Timing.cpp</title>
<!-- Node1 -->
<g id="node1" class="node">
<title>Node1</title>
<g id="a_node1"><a xlink:title=" ">
<polygon fill="#999999" stroke="#666666" points="162.62,-129.75 52.88,-129.75 52.88,-110.5 162.62,-110.5 162.62,-129.75"/>
<text text-anchor="middle" x="107.75" y="-116.25" font-family="Helvetica,sans-Serif" font-size="10.00">src/Profile/Timing.cpp</text>
</a>
</g>
</g>
<!-- Node2 -->
<g id="node2" class="node">
<title>Node2</title>
<g id="a_node2"><a xlink:href="../../d7/d04/Timing_8hpp.html" target="_top" xlink:title=" ">
<polygon fill="white" stroke="#666666" points="154.38,-74.5 61.12,-74.5 61.12,-55.25 154.38,-55.25 154.38,-74.5"/>
<text text-anchor="middle" x="107.75" y="-61" font-family="Helvetica,sans-Serif" font-size="10.00">Profile/Timing.hpp</text>
</a>
</g>
</g>
<!-- Node1&#45;&gt;Node2 -->
<g id="edge1" class="edge">
<title>Node1&#45;&gt;Node2</title>
<path fill="none" stroke="#63b8ff" d="M107.75,-110.33C107.75,-103.67 107.75,-94.24 107.75,-85.78"/>
<polygon fill="#63b8ff" stroke="#63b8ff" points="111.25,-85.86 107.75,-75.86 104.25,-85.86 111.25,-85.86"/>
</g>
<!-- Node3 -->
<g id="node3" class="node">
<title>Node3</title>
<g id="a_node3"><a xlink:title=" ">
<polygon fill="#e0e0e0" stroke="#999999" points="59.5,-19.25 0,-19.25 0,0 59.5,0 59.5,-19.25"/>
<text text-anchor="middle" x="29.75" y="-5.75" font-family="Helvetica,sans-Serif" font-size="10.00">x86intrin.h</text>
</a>
</g>
</g>
<!-- Node2&#45;&gt;Node3 -->
<g id="edge2" class="edge">
<title>Node2&#45;&gt;Node3</title>
<path fill="none" stroke="#63b8ff" d="M94.52,-54.84C82.86,-46.89 65.65,-35.14 51.9,-25.75"/>
<polygon fill="#63b8ff" stroke="#63b8ff" points="54.28,-22.45 44.05,-19.7 50.33,-28.23 54.28,-22.45"/>
</g>
<!-- Node4 -->
<g id="node4" class="node">
<title>Node4</title>
<g id="a_node4"><a xlink:title=" ">
<polygon fill="#e0e0e0" stroke="#999999" points="137.88,-19.25 77.62,-19.25 77.62,0 137.88,0 137.88,-19.25"/>
<text text-anchor="middle" x="107.75" y="-5.75" font-family="Helvetica,sans-Serif" font-size="10.00">sys/time.h</text>
</a>
</g>
</g>
<!-- Node2&#45;&gt;Node4 -->
<g id="edge3" class="edge">
<title>Node2&#45;&gt;Node4</title>
<path fill="none" stroke="#63b8ff" d="M107.75,-55.08C107.75,-48.42 107.75,-38.99 107.75,-30.53"/>
<polygon fill="#63b8ff" stroke="#63b8ff" points="111.25,-30.61 107.75,-20.61 104.25,-30.61 111.25,-30.61"/>
</g>
<!-- Node5 -->
<g id="node5" class="node">
<title>Node5</title>
<g id="a_node5"><a xlink:href="../../d5/d04/Types_8hpp.html" target="_top" xlink:title=" ">
<polygon fill="white" stroke="#666666" points="215.88,-19.25 155.62,-19.25 155.62,0 215.88,0 215.88,-19.25"/>
<text text-anchor="middle" x="185.75" y="-5.75" font-family="Helvetica,sans-Serif" font-size="10.00">Types.hpp</text>
</a>
</g>
</g>
<!-- Node2&#45;&gt;Node5 -->
<g id="edge4" class="edge">
<title>Node2&#45;&gt;Node5</title>
<path fill="none" stroke="#63b8ff" d="M120.98,-54.84C132.64,-46.89 149.85,-35.14 163.6,-25.75"/>
<polygon fill="#63b8ff" stroke="#63b8ff" points="165.17,-28.23 171.45,-19.7 161.22,-22.45 165.17,-28.23"/>
</g>
</g>
</svg>
