<?xml version="1.0" encoding="UTF-8" standalone="no"?>
<!DOCTYPE svg PUBLIC "-//W3C//DTD SVG 1.1//EN"
 "http://www.w3.org/Graphics/SVG/1.1/DTD/svg11.dtd">
<!-- Generated by graphviz version 8.0.5 (20230430.1635)
 -->
<!-- Title: src/Profile/Timing.cpp Pages: 1 -->
<svg width="304pt" height="138pt"
 viewBox="0.00 0.00 303.88 137.75" xmlns="http://www.w3.org/2000/svg" xmlns:xlink="http://www.w3.org/1999/xlink">
<g id="graph0" class="graph" transform="scale(1 1) rotate(0) translate(4 133.75)">
<title>src/Profile/Timing.cpp</title>
<!-- Node1 -->
<g id="node1" class="node">
<title>Node1</title>
<g id="a_node1"><a xlink:title=" ">
<polygon fill="#999999" stroke="#666666" points="201.62,-129.75 91.88,-129.75 91.88,-110.5 201.62,-110.5 201.62,-129.75"/>
<text text-anchor="middle" x="146.75" y="-116.25" font-family="Helvetica,sans-Serif" font-size="10.00">src/Profile/Timing.cpp</text>
</a>
</g>
</g>
<!-- Node2 -->
<g id="node2" class="node">
<title>Node2</title>
<g id="a_node2"><a xlink:href="../../d7/d04/Timing_8hpp.html" target="_top" xlink:title=" ">
<polygon fill="white" stroke="#666666" points="193.38,-74.5 100.12,-74.5 100.12,-55.25 193.38,-55.25 193.38,-74.5"/>
<text text-anchor="middle" x="146.75" y="-61" font-family="Helvetica,sans-Serif" font-size="10.00">Profile/Timing.hpp</text>
</a>
</g>
</g>
<!-- Node1&#45;&gt;Node2 -->
<g id="edge1" class="edge">
<title>Node1&#45;&gt;Node2</title>
<path fill="none" stroke="#63b8ff" d="M146.75,-110.33C146.75,-103.67 146.75,-94.24 146.75,-85.78"/>
<polygon fill="#63b8ff" stroke="#63b8ff" points="150.25,-85.86 146.75,-75.86 143.25,-85.86 150.25,-85.86"/>
</g>
<!-- Node3 -->
<g id="node3" class="node">
<title>Node3</title>
<g id="a_node3"><a xlink:title=" ">
<polygon fill="#e0e0e0" stroke="#999999" points="59.5,-19.25 0,-19.25 0,0 59.5,0 59.5,-19.25"/>
<text text-anchor="middle" x="29.75" y="-5.75" font-family="Helvetica,sans-Serif" font-size="10.00">x86intrin.h</text>
</a>
</g>
</g>
<!-- Node2&#45;&gt;Node3 -->
<g id="edge2" class="edge">
<title>Node2&#45;&gt;Node3</title>
<path fill="none" stroke="#63b8ff" d="M126.9,-54.84C108.41,-46.43 80.6,-33.77 59.46,-24.15"/>
<polygon fill="#63b8ff" stroke="#63b8ff" points="61.25,-20.66 50.69,-19.7 58.35,-27.03 61.25,-20.66"/>
</g>
<!-- Node4 -->
<g id="node4" class="node">
<title>Node4</title>
<g id="a_node4"><a xlink:title=" ">
<polygon fill="#e0e0e0" stroke="#999999" points="137.88,-19.25 77.62,-19.25 77.62,0 137.88,0 137.88,-19.25"/>
<text text-anchor="middle" x="107.75" y="-5.75" font-family="Helvetica,sans-Serif" font-size="10.00">sys/time.h</text>
</a>
</g>
</g>
<!-- Node2&#45;&gt;Node4 -->
<g id="edge3" class="edge">
<title>Node2&#45;&gt;Node4</title>
<path fill="none" stroke="#63b8ff" d="M140.31,-55.08C134.98,-47.8 127.24,-37.23 120.64,-28.23"/>
<polygon fill="#63b8ff" stroke="#63b8ff" points="123.06,-26.61 114.33,-20.61 117.42,-30.74 123.06,-26.61"/>
</g>
<!-- Node5 -->
<g id="node5" class="node">
<title>Node5</title>
<g id="a_node5"><a xlink:href="../../d8/d03/Export_8hpp.html" target="_top" xlink:title=" ">
<polygon fill="white" stroke="#666666" points="217.25,-19.25 156.25,-19.25 156.25,0 217.25,0 217.25,-19.25"/>
<text text-anchor="middle" x="186.75" y="-5.75" font-family="Helvetica,sans-Serif" font-size="10.00">Export.hpp</text>
</a>
</g>
</g>
<!-- Node2&#45;&gt;Node5 -->
<g id="edge4" class="edge">
<title>Node2&#45;&gt;Node5</title>
<path fill="none" stroke="#63b8ff" d="M153.36,-55.08C158.82,-47.8 166.76,-37.23 173.53,-28.23"/>
<polygon fill="#63b8ff" stroke="#63b8ff" points="176.79,-30.71 180,-20.61 171.2,-26.5 176.79,-30.71"/>
</g>
<!-- Node6 -->
<g id="node6" class="node">
<title>Node6</title>
<g id="a_node6"><a xlink:href="../../d5/d04/Types_8hpp.html" target="_top" xlink:title=" ">
<polygon fill="white" stroke="#666666" points="295.88,-19.25 235.62,-19.25 235.62,0 295.88,0 295.88,-19.25"/>
<text text-anchor="middle" x="265.75" y="-5.75" font-family="Helvetica,sans-Serif" font-size="10.00">Types.hpp</text>
</a>
</g>
</g>
<!-- Node2&#45;&gt;Node6 -->
<g id="edge5" class="edge">
<title>Node2&#45;&gt;Node6</title>
<path fill="none" stroke="#63b8ff" d="M166.94,-54.84C185.74,-46.43 214.03,-33.77 235.53,-24.15"/>
<polygon fill="#63b8ff" stroke="#63b8ff" points="236.77,-26.98 244.46,-19.7 233.91,-20.59 236.77,-26.98"/>
</g>
</g>
</svg>
