<?xml version="1.0" encoding="UTF-8" standalone="no"?>
<!DOCTYPE svg PUBLIC "-//W3C//DTD SVG 1.1//EN"
 "http://www.w3.org/Graphics/SVG/1.1/DTD/svg11.dtd">
<!-- Generated by graphviz version 8.0.5 (20230430.1635)
 -->
<!-- Title: headers/Profile/OSStatistics.hpp Pages: 1 -->
<svg width="468pt" height="83pt"
 viewBox="0.00 0.00 467.88 82.50" xmlns="http://www.w3.org/2000/svg" xmlns:xlink="http://www.w3.org/1999/xlink">
<g id="graph0" class="graph" transform="scale(1 1) rotate(0) translate(4 78.5)">
<title>headers/Profile/OSStatistics.hpp</title>
<!-- Node1 -->
<g id="node1" class="node">
<title>Node1</title>
<g id="a_node1"><a xlink:title=" ">
<polygon fill="#999999" stroke="#666666" points="315.25,-74.5 158.25,-74.5 158.25,-55.25 315.25,-55.25 315.25,-74.5"/>
<text text-anchor="middle" x="236.75" y="-61" font-family="Helvetica,sans-Serif" font-size="10.00">headers/Profile/OSStatistics.hpp</text>
</a>
</g>
</g>
<!-- Node2 -->
<g id="node2" class="node">
<title>Node2</title>
<g id="a_node2"><a xlink:title=" ">
<polygon fill="#e0e0e0" stroke="#999999" points="59.5,-19.25 0,-19.25 0,0 59.5,0 59.5,-19.25"/>
<text text-anchor="middle" x="29.75" y="-5.75" font-family="Helvetica,sans-Serif" font-size="10.00">x86intrin.h</text>
</a>
</g>
</g>
<!-- Node1&#45;&gt;Node2 -->
<g id="edge1" class="edge">
<title>Node1&#45;&gt;Node2</title>
<path fill="none" stroke="#63b8ff" d="M201.64,-54.84C165.26,-45.48 108.49,-30.88 70.24,-21.04"/>
<polygon fill="#63b8ff" stroke="#63b8ff" points="71.54,-17.5 60.98,-18.4 69.79,-24.28 71.54,-17.5"/>
</g>
<!-- Node3 -->
<g id="node3" class="node">
<title>Node3</title>
<g id="a_node3"><a xlink:title=" ">
<polygon fill="#e0e0e0" stroke="#999999" points="137.88,-19.25 77.62,-19.25 77.62,0 137.88,0 137.88,-19.25"/>
<text text-anchor="middle" x="107.75" y="-5.75" font-family="Helvetica,sans-Serif" font-size="10.00">sys/time.h</text>
</a>
</g>
</g>
<!-- Node1&#45;&gt;Node3 -->
<g id="edge2" class="edge">
<title>Node1&#45;&gt;Node3</title>
<path fill="none" stroke="#63b8ff" d="M214.87,-54.84C194.3,-46.35 163.26,-33.54 139.88,-23.89"/>
<polygon fill="#63b8ff" stroke="#63b8ff" points="141.32,-20.28 130.74,-19.7 138.65,-26.75 141.32,-20.28"/>
</g>
<!-- Node4 -->
<g id="node4" class="node">
<title>Node4</title>
<g id="a_node4"><a xlink:title=" ">
<polygon fill="#e0e0e0" stroke="#999999" points="235.25,-19.25 156.25,-19.25 156.25,0 235.25,0 235.25,-19.25"/>
<text text-anchor="middle" x="195.75" y="-5.75" font-family="Helvetica,sans-Serif" font-size="10.00">sys/resource.h</text>
</a>
</g>
</g>
<!-- Node1&#45;&gt;Node4 -->
<g id="edge3" class="edge">
<title>Node1&#45;&gt;Node4</title>
<path fill="none" stroke="#63b8ff" d="M229.98,-55.08C224.38,-47.8 216.24,-37.23 209.3,-28.23"/>
<polygon fill="#63b8ff" stroke="#63b8ff" points="211.54,-26.4 202.67,-20.61 205.99,-30.67 211.54,-26.4"/>
</g>
<!-- Node5 -->
<g id="node5" class="node">
<title>Node5</title>
<g id="a_node5"><a xlink:title=" ">
<polygon fill="#e0e0e0" stroke="#999999" points="302.62,-19.25 252.88,-19.25 252.88,0 302.62,0 302.62,-19.25"/>
<text text-anchor="middle" x="277.75" y="-5.75" font-family="Helvetica,sans-Serif" font-size="10.00">unistd.h</text>
</a>
</g>
</g>
<!-- Node1&#45;&gt;Node5 -->
<g id="edge4" class="edge">
<title>Node1&#45;&gt;Node5</title>
<path fill="none" stroke="#63b8ff" d="M243.52,-55.08C249.12,-47.8 257.26,-37.23 264.2,-28.23"/>
<polygon fill="#63b8ff" stroke="#63b8ff" points="267.51,-30.67 270.83,-20.61 261.96,-26.4 267.51,-30.67"/>
</g>
<!-- Node6 -->
<g id="node6" class="node">
<title>Node6</title>
<g id="a_node6"><a xlink:href="../../d8/d03/Export_8hpp.html" target="_top" xlink:title=" ">
<polygon fill="white" stroke="#666666" points="381.25,-19.25 320.25,-19.25 320.25,0 381.25,0 381.25,-19.25"/>
<text text-anchor="middle" x="350.75" y="-5.75" font-family="Helvetica,sans-Serif" font-size="10.00">Export.hpp</text>
</a>
</g>
</g>
<!-- Node1&#45;&gt;Node6 -->
<g id="edge5" class="edge">
<title>Node1&#45;&gt;Node6</title>
<path fill="none" stroke="#63b8ff" d="M256.09,-54.84C274.02,-46.47 300.96,-33.88 321.52,-24.28"/>
<polygon fill="#63b8ff" stroke="#63b8ff" points="322.74,-27.11 330.32,-19.7 319.78,-20.76 322.74,-27.11"/>
</g>
<!-- Node7 -->
<g id="node7" class="node">
<title>Node7</title>
<g id="a_node7"><a xlink:href="../../d5/d04/Types_8hpp.html" target="_top" xlink:title=" ">
<polygon fill="white" stroke="#666666" points="459.88,-19.25 399.62,-19.25 399.62,0 459.88,0 459.88,-19.25"/>
<text text-anchor="middle" x="429.75" y="-5.75" font-family="Helvetica,sans-Serif" font-size="10.00">Types.hpp</text>
</a>
</g>
</g>
<!-- Node1&#45;&gt;Node7 -->
<g id="edge6" class="edge">
<title>Node1&#45;&gt;Node7</title>
<path fill="none" stroke="#63b8ff" d="M269.49,-54.84C302.43,-45.75 353.32,-31.71 388.89,-21.9"/>
<polygon fill="#63b8ff" stroke="#63b8ff" points="389.69,-25.03 398.4,-19 387.83,-18.29 389.69,-25.03"/>
</g>
</g>
</svg>
